<?xml version="1.0" encoding="UTF-8"?>
<svg id="Capa_1" data-name="Capa 1" xmlns="http://www.w3.org/2000/svg" viewBox="0 0 128 119">
  <defs>
    <style>
      .cls-1 {
        fill: #e1a7cc;
      }

      .cls-2 {
        fill: #fff;
      }
    </style>
  </defs>
  <g>
    <path class="cls-1" d="M100.93,75.22c2.17,1.61,8.73-2.44,13.02-7.35,3.9-4.46,5.37-8.96,6.84-13.64,1.05-3.36,1.89-6.88,1.54-10.39-.35-3.51-2.08-7.03-5.14-8.78-.62-.35-1.32-.66-1.71-1.26-.57-.88-.28-2.02-.04-3.04,1.27-5.38.53-11.21-2.03-16.1-1.03-1.97-2.41-3.85-4.33-4.98-1.9-1.11-4.16-1.41-6.35-1.52-6.42-.33-12.91.73-18.89,3.07-.53.21-1.11.43-1.67.29-.52-.14-.9-.56-1.27-.95-4.46-4.67-11.26-6.09-17.65-7-6-.86-12.2-1.47-18.05.14-5.84,1.61-11.3,5.89-12.67,11.8-.87,3.74-.04,7.72-.87,11.47-8.51-3.15-19.07,1.06-23.07,9.21-2.36,4.81-2.52,10.49-1.34,15.72,1.19,5.23,3.63,10.08,6.32,14.72-3.46.68-5.53,4.62-5.21,8.14.33,3.52,2.45,6.6,4.77,9.26,2.67,3.06,5.74,5.85,9.39,7.62,3.65,1.77,7.94,2.46,11.83,1.3.48-.14.97-.33,1.27-.72.77-1.01-.22-2.42-.19-3.69.02-1.3,1-2.16,1.77-2.93,11.96-12.04,26.67-15.26,26.67-15.26,3.6-.79,7.57-1.02,15.51-1.48,2.09-.12,5.75.13,13.06.64,2.59.18,5.49.42,7.05,2.5,1.1,1.46.57,2.57,1.46,3.23Z"/>
    <path class="cls-2" d="M99.91,75.6c1.4.93,3.45.32,4.88-.22,2.34-.89,4.46-2.35,6.39-3.93,4.89-4.03,7.99-9.17,9.96-15.13s3.87-12.38.62-17.97c-.62-1.07-1.41-2.06-2.37-2.84-1.03-.84-2.76-1.27-3.11-2.69s.5-3.29.67-4.74c.19-1.59.23-3.19.1-4.78-.44-5.5-2.91-12.68-8.58-14.75-2.94-1.07-6.35-1.01-9.43-.89-3.25.13-6.48.61-9.64,1.38-1.58.39-3.15.86-4.68,1.41-.81.29-1.56.76-2.36.19-.68-.48-1.21-1.23-1.86-1.77-2.11-1.74-4.62-2.93-7.2-3.79-2.79-.93-5.7-1.45-8.6-1.89-3.34-.5-6.7-.92-10.08-.97-6.58-.09-13.39,1.35-18.43,5.82-2.18,1.93-3.91,4.44-4.66,7.28-1.02,3.87-.17,7.92-.96,11.82l1.96-.62c-6.54-2.35-14.29-.73-19.74,3.47-6.82,5.27-8.47,14.09-6.64,22.19,1.19,5.25,3.65,10.09,6.32,14.72l.98-.67c-4.02.92-6.55,4.74-6.19,8.81.45,5.03,4.5,9.43,8.05,12.68,3.81,3.49,8.57,6.09,13.84,6.26,2.15.07,4.83-.12,6.73-1.24,2.32-1.38-.12-3.84,1.02-5.76.61-1.01,1.68-1.87,2.53-2.67,1.08-1.02,2.21-2,3.38-2.93,1.94-1.54,3.98-2.95,6.1-4.24,3.29-2,6.79-3.68,10.41-5,4.86-1.78,9.47-2.2,14.71-2.53,2.17-.14,4.36-.36,6.54-.32,1.99.04,3.97.18,5.96.31,2.87.19,5.96.1,8.76.82,1.33.34,2.65,1.01,3.37,2.24.56.94.43,2.17,1.27,2.93.45.41,2.43-.41,2.04-.76-.74-.67-.64-1.9-1.13-2.75-.52-.89-1.32-1.55-2.23-1.99-1.91-.92-4.12-.99-6.2-1.13-3.8-.26-7.63-.64-11.44-.62-3.97.02-8.02.37-11.96.79-2.03.22-4.06.49-6.04,1.02-6,1.6-11.77,4.31-16.98,7.66-2.01,1.29-3.94,2.7-5.79,4.22s-3.9,3.09-5.23,5.01c-.57.83-.71,1.67-.51,2.65.11.52.33,1.04.36,1.57.07,1.19-.98,1.45-1.96,1.61-2.77.46-5.67-.11-8.25-1.16-5.29-2.15-10.13-6.78-13.1-11.6-1.37-2.22-2.4-4.89-2-7.54.34-2.3,1.73-5.02,4.17-5.58.14-.03,1.16-.37.98-.67-4.13-7.17-7.86-15.21-6.89-23.7.81-7.08,5.29-13.15,12.16-15.4,3.54-1.16,7.36-1.06,10.85.19.4.14,1.85-.08,1.96-.62.62-3.08.26-6.2.54-9.31.24-2.74,1.21-5.29,2.92-7.46,3.63-4.59,9.27-6.56,14.96-6.81,3.19-.14,6.39.16,9.55.57,2.82.37,5.64.79,8.4,1.49s5.22,1.59,7.52,3.04c1.08.68,2.08,1.47,2.98,2.36.78.77,1.34,1.39,2.52,1.36,1.32-.03,2.59-.73,3.82-1.15,1.69-.58,3.42-1.06,5.18-1.42,3.13-.64,6.34-.95,9.53-.88,2.9.06,6,.28,8.37,2.14s3.71,4.64,4.64,7.34,1.36,5.52,1.28,8.36c-.04,1.53-.26,3.03-.59,4.52-.25,1.13-.59,2.39.2,3.38.7.87,1.93,1.24,2.79,1.94,1.09.9,1.96,2.04,2.59,3.31,1.2,2.41,1.54,5.11,1.32,7.77-.28,3.45-1.4,6.83-2.52,10.09-1.06,3.08-2.39,6.07-4.32,8.7s-4.22,4.82-6.81,6.65c-1.21.85-4.06,3.12-5.65,2.07-.53-.35-2.41.52-2.04.76Z"/>
  </g>
  <g>
    <path class="cls-1" d="M105.28,98.42c-1.35-6.59-2.69-13.18-4.04-19.76-.4-1.94-.79-3.88-1.42-5.75-.22-.67-.49-1.36-.99-1.86-.78-.79-1.96-1-3.06-1.15-8.81-1.21-17.78-1.33-26.62-.36-3.12.34-6.24.82-9.2,1.86-2.44.86-4.74,2.08-7.02,3.31-5.32,2.85-10.75,5.78-14.83,10.23-.93,1.02-1.8,2.14-2.15,3.47-.32,1.2-.19,2.46-.02,3.69.57,4.09,1.64,8.1,2.71,12.09.92,3.43,1.85,6.89,3.52,10.03.29.54.62,1.09,1.12,1.45.66.46,1.51.52,2.32.55,12.72.49,19.07-1.02,24.48-2.45,4.12-1.09,2.84-.93,8.17-2.4,13.63-3.76,20.03-4.24,24.64-9.33.7-.78,3.22-3.43,2.25-5.06-.61-1.02-1.88-1.39-3.05-1.64-9.72-2.03-19.91-1.12-29.47,1.56-9.21,2.58-18.05,4.9-27.17,12.06-1.74,1.37-3.1,2.6-4.03,3.48"/>
    <path class="cls-2" d="M106.37,98.13c-1.12-5.46-2.23-10.93-3.35-16.39-.53-2.61-.99-5.25-1.71-7.82-.57-2.03-1.23-3.77-3.42-4.41-2.37-.69-5.06-.76-7.51-.96-2.74-.23-5.49-.35-8.24-.37-5.38-.04-10.82.23-16.14,1.07-2.52.4-4.99.98-7.36,1.9s-4.65,2.18-6.91,3.39c-4.05,2.17-8.1,4.42-11.63,7.39-1.71,1.44-3.54,3.08-4.62,5.07-1.2,2.2-.77,4.67-.37,7.03.88,5.16,2.24,10.37,3.86,15.35.66,2.04,1.41,4.74,2.91,6.35s4.24,1.22,6.19,1.25c4.19.07,8.39-.06,12.55-.61,5.45-.71,10.6-2.31,15.85-3.83,4.4-1.27,8.85-2.33,13.27-3.48,3.02-.78,6.11-1.59,8.92-2.99,2.34-1.17,4.35-2.77,6-4.8.88-1.07,2.1-2.64,1.75-4.14-.43-1.85-2.8-2.32-4.36-2.62-10.24-1.99-20.63-.8-30.6,1.99-9.22,2.58-18.2,5.57-25.92,11.42-1.74,1.32-3.41,2.74-5,4.24-.37.35-.17.77.25.92.5.19,1.17-.07,1.54-.41,6.55-6.17,14.31-10.26,22.85-12.93s17.93-5.08,27.31-4.79c2.32.07,4.64.29,6.93.66,1.51.24,5.27.5,4.79,2.83s-3.09,4.46-4.92,5.65c-2.17,1.42-4.68,2.23-7.16,2.93-3.55,1.01-7.15,1.84-10.72,2.78-5.35,1.4-10.58,3.24-16,4.39-2.95.63-5.94,1.01-8.95,1.21-2.08.14-4.17.19-6.25.19-1.16,0-2.32-.03-3.47-.07-1.34-.04-2.51-.02-3.29-1.28-2.4-3.86-3.31-8.77-4.44-13.11-.62-2.38-1.2-4.78-1.64-7.2s-.98-4.93.38-7.12c2.28-3.68,6.53-6.35,10.17-8.51,3.83-2.28,7.88-4.66,12.08-6.2,4.69-1.72,9.9-2.06,14.85-2.34s10.01-.19,14.99.23c1.21.1,2.42.23,3.62.37,1.14.14,2.42.17,3.5.6,1.99.78,2.32,3.93,2.73,5.76,1.1,4.9,2.02,9.84,3.03,14.76.49,2.41.98,4.82,1.48,7.23.18.89,2.36.34,2.17-.58h0Z"/>
  </g>
  <path class="cls-2" d="M81.46,18.27c.57,3.87-.71,7.65-1.96,11.26-.16.47.69.49.94.46.44-.05,1.08-.27,1.24-.73,1.28-3.72,2.55-7.59,1.96-11.57-.11-.72-2.29-.22-2.17.58h0Z"/>
  <path class="cls-2" d="M33.3,33.46c-.31,1.58.06,3.25.38,4.81s.75,3.08,1.35,4.54c1.1,2.64,2.76,5.02,5.1,6.69.8.57,2.69-.54,1.67-1.27-2.17-1.55-3.72-3.8-4.7-6.26-.52-1.3-.9-2.64-1.19-4.01-.33-1.51-.71-3.12-.41-4.66.21-1.09-2.01-.83-2.2.16h0Z"/>
  <path class="cls-2" d="M48.44,69.28c.16,2.37,1.77,4.45,3.95,5.33.19.08.51.03.7,0,.27-.04.58-.13.83-.26s.7-.45.25-.63c-2.02-.82-3.4-2.87-3.55-5.03,0-.14-.31-.18-.39-.19-.25-.02-.56.02-.8.09-.28.08-1.01.28-.98.68h0Z"/>
  <path class="cls-2" d="M76.44,52.95c.24,5.5-.37,11.27-2.51,16.38-.2.47,1.9.26,2.15-.35,2.17-5.18,2.77-11.04,2.53-16.62-.02-.48-2.2-.1-2.17.58h0Z"/>
  <path class="cls-2" d="M79.82,68.84c.5-1.23.68-2.54.58-3.87-.01-.18-.3-.31-.43-.34-.25-.07-.57-.04-.82.03-.42.12-.96.39-.92.9,0,.13.02.27.02.4v-.17c.02,1.13-.19,2.25-.61,3.29-.07.17.11.36.23.44.2.11.5.13.72.1.51-.07,1.02-.29,1.22-.78h0Z"/>
  <path class="cls-2" d="M99.1,64c-.68,1.1-.51,2.49-1.13,3.63-.27.49-.62.92-1.05,1.27-.1.08-.18.14-.26.19-.07.05-.15.09-.22.13-.14.08.03,0-.06.03-.06.03-.13.06-.19.09.13-.06.07-.03-.03,0-.13.05.21-.06,0,0-.23.07.22-.04-.04,0-.28.05-.57.14-.83.25-.1.05-.4.18-.45.31-.12.34.76.19.86.17,1.61-.3,3.18-1.06,4.15-2.43.4-.57.62-1.2.76-1.88.15-.75.23-1.52.64-2.19.19-.31-.77-.18-.86-.17-.28.06-.57.13-.83.25-.16.07-.36.16-.45.31h0Z"/>
  <path class="cls-2" d="M111.43,53.19c-.51,7.46-5.49,14.65-12.54,17.33-.23.09-.86.3-.65.62.18.28,1.2-.05,1.4-.12,7.71-2.93,13.39-10.11,13.96-18.41.02-.31-2.13-.07-2.17.58h0Z"/>
  <path class="cls-2" d="M23.36,74.67c3.03,5.48,8.38,9.45,14.52,10.73.5.11,1.17-.04,1.54-.41.31-.32.26-.73-.22-.83-5.73-1.2-10.83-4.95-13.66-10.07-.43-.77-2.53-.07-2.17.58h0Z"/>
  <path class="cls-2" d="M29.53,73.44c2.26,4.12,4.95,7.99,8.02,11.54.36.42,2.4-.34,2.05-.75-3.03-3.5-5.67-7.32-7.9-11.37-.3-.55-2.37.23-2.17.58h0Z"/>
</svg>