<?xml version="1.0" encoding="UTF-8"?>
<svg id="Capa_1" data-name="Capa 1" xmlns="http://www.w3.org/2000/svg" viewBox="0 0 128 119">
  <defs>
    <style>
      .cls-1 {
        fill: #e1a7cc;
      }

      .cls-2 {
        fill: #fff;
      }
    </style>
  </defs>
  <g>
    <path class="cls-1" d="M67.89,6.76c.94-.59.85-1.36,2.04-3.12.77-1.14,1.57-1.94,2.11-2.43,2.34,5,3.84,9.44,4.83,12.88,1.57,5.44,2.24,9.8,2.77,13.28.66,4.36.92,7.63,1.15,10.35.76,9.07,1.43,18.16,1.97,27.24.43,7.16.75,14.6-1.96,21.24-2.17,5.34-6.13,9.73-10.01,14-22.19,24.41-5.29,5.16-12.8,14.06-.24.28-1.43,1.7-3.42,2.37-.32.11-2.71.91-3.62-.12-.62-.71-.28-1.96.09-3.08,1.36-4.02,3.46-6.97,4.08-7.84,0,0,4.49-6.32,6.56-12.59.13-.41.32-1.12,0-1.76-.23-.46-.72-.74-1.19-.93-2.47-1.03-5.35-.6-7.78.52-2.43,1.11-4.52,2.84-6.61,4.51-5.25,4.16-10.76,8-16.48,11.49-1.78,1.09-4.57,1.91-5.56.07-.6-1.13,0-2.5.66-3.6,2.03-3.41,4.1-5.75,4.11-5.76,4.51-3.97,9.08-9.33,10.1-10.62,4.12-5.18,1.77-8.3,4.59-29.24.39-2.93.98-6.42,2.15-13.42,3.86-23.07,4.12-19.5,4.27-23.69,0,0,.33-9.34,3.25-15.99.5-1.14,1.45-3.01,2.53-2.95.57.03.99.59,1.8,1.71,1.54,2.12,1.31,2.8,2.2,3.4.69.46.99.17,4.11.21,2.94.03,3.31.29,4.04-.16Z"/>
    <path class="cls-2" d="M68.74,6.85c.8-.56,1.11-1.33,1.55-2.16.7-1.33,1.65-2.5,2.75-3.52l-2.08.33c3.58,7.72,5.97,15.83,7.3,24.23,1.41,8.89,1.94,17.91,2.59,26.88.36,5.03.72,10.07.97,15.11.24,4.73.3,9.53-.72,14.18-2.02,9.22-9.04,15.88-15.18,22.6-2.06,2.26-4.13,4.52-6.21,6.76-.45.48-.9.97-1.36,1.44-.11.12-.26.23-.35.36-.16.23.16-.12.42-.21l1.28-.14c.63.13-.18.53.31.15.15-.12.28-.32.4-.47.14-.16.28-.31.42-.47.26-.3.26-.19-.09-.01l-1.1.29h0c-.21-.07-.42-.15-.64-.22-.06-.16.17-.22,0-.11-.11.07-.22.28-.31.39-.45.55-.9,1.09-1.36,1.64-1.02,1.21-2.27,2.24-3.67,2.52-3.47.7-1.23-4.15-.58-5.61,1.19-2.65,2.87-4.92,4.41-7.36,1.21-1.92,2.34-3.9,3.33-5.94.56-1.15,1.07-2.31,1.52-3.51.36-.95.95-2.2.36-3.18-1.13-1.89-4.71-1.77-6.56-1.49-2.53.38-4.86,1.5-6.98,2.91-2.39,1.6-4.57,3.52-6.87,5.26s-4.77,3.51-7.23,5.16c-1.16.78-2.34,1.55-3.52,2.31s-2.4,1.68-3.73,2.19c-.96.37-2.1.42-2.67-.6-.71-1.28.25-2.82.91-3.9,1.07-1.75,2.26-3.59,3.68-5.1,1.58-1.68,3.38-3.17,4.97-4.84,3.33-3.49,7.11-6.98,7.83-11.97.35-2.45.4-4.95.54-7.42.26-4.52.67-9.03,1.23-13.52,1.1-8.87,2.7-17.7,4.33-26.48.66-3.56,1.55-7.08,2.19-10.63.14-.8.18-1.61.22-2.42.13-2.85.49-5.71,1.04-8.51.45-2.28,1.04-4.55,1.91-6.72.21-.53.44-1.05.7-1.56.14-.26.28-.53.45-.78.1-.14.61-.53.26-.53s.12.22.21.34c.13.17.28.33.41.5.47.61.91,1.24,1.29,1.91.54.97.87,2.13,2.06,2.45.54.14,1.13.08,1.68.06,1.24-.04,2.47-.05,3.71,0s2.59.19,3.76-.49c1.25-.73-.7-.77-1.29-.43-.1.06.43.09-.05-.03-.42-.11-.96-.05-1.38-.06-1.24-.05-2.48-.05-3.72,0-.43.01-.88.1-1.28-.09-.63-.31-.87-1.15-1.17-1.72-.77-1.44-1.91-3.75-3.83-3.5-2.1.27-3.08,2.18-3.82,3.94-2.31,5.49-2.6,11.29-3.19,17.12-.27,2.68-1.13,5.37-1.65,8.01-1.73,8.77-3.26,17.62-4.53,26.47-.68,4.71-1.18,9.44-1.51,14.19-.22,3.03-.28,6.07-.58,9.09-.18,1.82-.52,3.63-1.4,5.26-1.36,2.52-3.64,4.68-5.57,6.75-1.83,1.96-3.88,3.69-5.72,5.62-1.28,1.34-2.34,2.97-3.34,4.52s-2.88,4.24-.92,5.81c1.43,1.15,3.85.44,5.34-.19,2.51-1.06,4.82-2.83,7.08-4.33,2.53-1.68,5.01-3.44,7.44-5.26s4.62-3.74,7.06-5.43c2.59-1.8,5.99-3.35,9.12-1.93,1.65.75,1.08,2.25.57,3.6-.54,1.45-1.19,2.87-1.89,4.25-.99,1.96-2.09,3.86-3.28,5.7-1.78,2.74-3.58,5.35-4.74,8.44-.64,1.7-1.56,4.39,1.03,4.75,1.65.23,3.56-.36,5.01-1.13,1.86-.99,3.22-2.69,4.5-4.33.1-.12.43-.43.36-.61-.09-.23-.44-.22-.64-.22-.98.03-1.48.55-2.06,1.2-.16.19-.84.78-.77,1.07.04.09.11.15.21.17,1.16.24,1.87-.45,2.58-1.19,1.28-1.33,2.52-2.7,3.77-4.05,2.81-3.06,5.61-6.12,8.4-9.2,3.12-3.45,6.21-7.03,8.32-11.21,4.47-8.82,3.14-19.27,2.52-28.77s-1.15-19.8-2.42-29.61-3.72-19.57-7.96-28.69c-.3-.64-1.76.03-2.08.33-.93.86-1.74,1.81-2.41,2.88-.5.8-.81,1.98-1.6,2.54-.39.28-.21.49.16.59.46.13,1.17-.15,1.54-.41Z"/>
  </g>
  <g>
    <path class="cls-1" d="M82.46,80.46c1.14-1.37,4.81,1.87,9.06.87,2.54-.6,4.18-2.45,4.74-3.08.31-.35,1.36-1.18,2.45-4.69.92-2.96,1.72-6.02,3.39-8.63.88-1.37,2.09-2.66,3.67-3.01s3.52.6,3.71,2.22c.17,1.46-1.15,2.29-2.45,4.49-2.59,4.38-.01,6.74-2.39,11.38-1.49,2.92-3.82,4.53-4.98,5.34-3.15,2.19-6.16,2.7-7.84,2.97-2.96.47-4.95.08-8.94-.71-.54-.11-1.98-.41-2.14-1.17-.08-.36.19-.57.56-1.44.19-.45.32-.98.59-2.03.58-2.31.39-2.28.58-2.51Z"/>
    <path class="cls-2" d="M83.38,80.82c-.3.3-.38.01-.04.17.18.08.46.1.65.15.61.17,1.2.39,1.81.57,1.34.4,2.71.69,4.12.66,2.84-.08,5.22-1.58,7.1-3.59,3.91-4.18,3.03-11.06,7.24-15.06,1.07-1.01,2.93-1.56,3.87-.04.8,1.28-.61,2.52-1.3,3.49-.97,1.37-1.75,2.84-2.04,4.51-.24,1.35-.1,2.72-.15,4.09-.23,6.42-6.57,10.63-12.35,11.64-3.11.54-6.44.11-9.47-.72-.24-.07-.92-.21-1-.48-.04-.15.36-.72.42-.86.26-.59.42-1.22.58-1.84.2-.77.4-1.54.54-2.32.03-.16.04-.32.08-.47.04-.2-.15.22-.07.11.85-1.11-1.19-1.57-1.84-.72-.43.56-.42,1.48-.57,2.13-.18.8-.36,1.64-.65,2.42-.22.6-.73,1.2-.69,1.86.08,1.34,1.83,1.71,2.88,1.94,1.86.4,3.76.78,5.67.89,6.39.37,13.55-2.68,16.97-8.24,1-1.62,1.6-3.41,1.7-5.31.08-1.7-.16-3.43.35-5.09.58-1.88,1.95-3.17,2.9-4.83.69-1.2.64-2.58-.34-3.62-2.57-2.71-6.49-.65-8.27,1.84-2.52,3.53-2.94,7.84-4.73,11.68-1.13,2.41-3.6,4.65-6.31,4.87-1.91.16-3.67-.63-5.47-1.13-1.25-.35-2.47-.42-3.45.57-.38.39-.13.94.3,1.13.54.24,1.16-.03,1.54-.41Z"/>
  </g>
  <path class="cls-2" d="M66.2,43.95c-1.04,3.69-2.22,7.37-3.03,11.11-.42,1.94-.72,3.9-.96,5.87-.21,1.72-.59,3.63-.32,5.35.51,3.29,4.14,3.16,6.08,1.17,2.37-2.44,3.87-5.88,5.07-9.01,1.47-3.85,2.93-7.95,3.15-12.1.05-1-2.14-.62-2.19.22-.21,3.95-1.56,7.84-2.93,11.52-.51,1.36-4.41,10.77-6.31,9.14-1.37-1.18-.64-4.05-.47-5.58.22-2.05.52-4.09.93-6.11.79-3.99,2.07-7.9,3.17-11.82.25-.89-1.95-.61-2.19.22h0Z"/>
  <path class="cls-2" d="M47.53,46.2c.1,1.77.21,3.54.5,5.29s.88,3.31,1.46,4.96.76,3.24,1.19,4.85,1,3.23,1.73,4.74c.57,1.19,1.36,2.28,2.79,2.33,1.16.04,2.37-.48,3.02-1.46.8-1.23.91-2.93,1-4.34.11-1.69.05-3.39,0-5.09-.14-4.25-.4-8.49-.65-12.74-.03-.55-2.22-.14-2.17.58.24,4.02.48,8.04.63,12.07.07,1.97.18,3.96.01,5.93-.08.93-.2,1.9-.47,2.79-.07.22-.17.63-.32.81-.09.38-.25.44-.47.17-.15-.1-.29-.22-.4-.36-1.17-1.24-1.75-3.44-2.23-5.04s-.71-3.4-1.21-5.06-1.26-3.32-1.61-5.1c-.38-1.95-.5-3.94-.61-5.92-.03-.55-2.22-.14-2.17.58h0Z"/>
  <g>
    <path class="cls-2" d="M67.99,13.37c-.28.12-.48.42-.47.73.01.25.15.49.35.64s.46.22.71.22c.1,0,.21-.01.29-.08.09-.07.12-.18.15-.29.06-.21.13-.43.13-.65s-.08-.45-.26-.59c-.21-.16-.49-.15-.75-.13"/>
    <path class="cls-2" d="M67.36,13.21c-.48.21-.95.61-.92,1.18,0,.22.12.41.26.57.15.18.35.27.57.35.29.1.64.12.95.09.43-.04.86-.15,1.24-.34.23-.11.46-.26.58-.49.04-.08.07-.18.09-.26.03-.11.06-.21.08-.32.04-.22.06-.45-.03-.66-.25-.61-1.02-.58-1.56-.55-.28.02-.58.09-.85.19-.12.04-.24.1-.35.16-.09.04-.18.1-.25.17-.07.08-.17.21-.04.3.15.1.39.08.56.07.04,0,.07,0,.11,0,.13,0-.26,0-.12,0,.06,0,.13,0,.19.01l-.19-.03c.07.01.14.03.2.05l-.13-.05c.1.04.18.1.24.18l-.06-.08c.14.19.17.42.14.65v-.1c0,.14-.04.27-.08.4-.03.11-.06.22-.13.31l.09-.11s-.03.04-.05.05l.15-.12c-.12.08-.02.04.3-.12.25-.13.51-.2.8-.22-.12,0,.24,0,.13,0-.05,0-.11,0-.16-.01l.19.03c-.11-.02-.21-.04-.31-.08l.13.05c-.16-.07-.29-.16-.4-.3l.06.08c-.13-.17-.2-.38-.18-.59v.1c0-.13.06-.25.14-.36l-.09.11c.04-.05.09-.1.14-.14l-.15.12s.05-.03.07-.05c.07-.05-.26.13-.11.06.1-.04.2-.1.28-.17.07-.04.12-.1.16-.17.05-.14-.06-.21-.18-.24-.22-.05-.47-.03-.69.01-.29.05-.56.14-.83.26h0Z"/>
  </g>
  <g>
    <path class="cls-2" d="M57.15,13.28c-.21,0-.39.15-.49.33s-.14.39-.16.59c-.01.12-.02.24-.03.36,0,.08,0,.17.04.23.04.06.12.1.19.13.44.18.96.31,1.37.06.2-.12.34-.32.44-.54.16-.34.19-.79-.08-1.04-.12-.1-.27-.16-.42-.2-.25-.07-.54-.1-.77.02"/>
    <path class="cls-2" d="M57.63,12.86c-.44.03-.89.16-1.29.34-.26.12-.48.26-.66.48s-.23.5-.26.77-.11.61.15.78c.1.06.22.1.32.13.16.05.31.11.47.13.52.09,1.07.02,1.58-.12.55-.15,1.09-.38,1.45-.83.14-.18.24-.4.29-.63s.06-.46-.06-.67c-.18-.3-.5-.4-.82-.47-.26-.06-.53-.07-.8-.04-.47.04-.96.16-1.39.37-.12.06-.39.18-.45.32-.05.13.06.19.17.21.22.04.47.01.69-.03.28-.06.57-.13.83-.26.1-.05.04-.03-.19.06-.14.06-.29.1-.45.13.01,0-.3.04-.17.03-.17,0-.22,0-.15,0,.02,0,.03,0,.05,0-.03.01-.19-.02-.07,0s.24.05.35.08l-.13-.04c.13.05.26.11.35.22l-.06-.07c.15.19.17.43.13.65l.02-.09c-.05.25-.16.48-.33.68l.09-.1s-.07.07-.1.1c-.09.08.04-.03.06-.04-.02,0-.04.02-.06.03.16-.08.2-.1.13-.07-.05.02-.02,0,.08-.03.18-.07.36-.13.55-.16-.13.02.19-.02.17-.02-.04,0-.16.01.02,0,.17,0,.07,0,.03,0-.06,0-.14-.02.07,0-.05,0-.1-.01-.15-.02-.11-.02-.21-.05-.31-.08l.13.04c-.13-.04-.29-.09-.39-.19l.06.07c-.08-.11-.06-.25-.05-.38,0-.15.02-.3.05-.44l-.02.09c.04-.18.1-.36.22-.51l-.09.1s.08-.06.11-.1c-.06.07-.18.11-.26.15-.18.08-.37.14-.56.16-.38.07-.49.09-.34.08.28-.02.58-.1.85-.19.19-.07.47-.17.61-.32.07-.07.18-.19.05-.27-.15-.09-.39-.06-.55-.05h0Z"/>
  </g>
  <g>
    <path class="cls-2" d="M61.74,15.51h1.62c.11,0,.23,0,.32.05.15.09.2.29.16.45s-.14.31-.24.45c-.17.23-.33.46-.5.69-.07.1-.15.21-.27.24-.19.04-.36-.14-.47-.31-.3-.46-.53-.97-.68-1.5"/>
    <path class="cls-2" d="M61.3,16.06h.91c.15,0,.3,0,.45,0,.07,0,.14,0,.21,0,.04,0,.08,0,.12,0h-.17s.05,0,.07,0l-.19-.05s.07.02.1.04l-.14-.08s.07.06.1.1l-.07-.11c.05.08.07.17.07.27v-.13c0,.12-.04.22-.1.32l.08-.14c-.11.19-.25.37-.38.54-.12.17-.23.36-.38.51l.15-.14c-.44.39,1.79-.23,1.26-.32l.19.05s-.06-.02-.08-.03l.14.08c-.11-.07-.2-.17-.27-.28l.07.11c-.3-.47-.53-.97-.68-1.5-.05-.16-.27-.22-.41-.24-.25-.04-.56,0-.8.07s-.53.17-.73.34c-.11.1-.28.24-.23.41.13.46.32.89.56,1.3.12.2.24.45.45.58.23.14.46.18.73.19.5,0,1.04-.18,1.44-.47.23-.16.37-.39.53-.62.15-.2.3-.4.43-.61.14-.23.27-.5.18-.78-.11-.33-.44-.46-.77-.49-.35-.03-.72-.01-1.07-.01h-.89c-.28,0-.59.08-.85.18-.19.07-.47.21-.59.38-.08.12-.15.27-.01.38.15.13.39.14.57.14h0Z"/>
  </g>
  <path class="cls-2" d="M61.83,17.62c-.06.42-.02.83.18,1.22s.48.72.85.93c.51.29,1.08.38,1.66.36.73-.03,1.52-.23,2.16-.6.13-.08.38-.2.44-.37.05-.15-.06-.24-.19-.27-.22-.06-.48-.05-.7,0-.28.05-.58.12-.83.26-.05.03-.28.14-.1.06s.03-.01-.01,0c-.14.06.13-.04.14-.04-.04,0-.22.05,0,0s.04-.01,0,0c-.14.03.11,0,.12-.01-.03.02-.09,0-.12,0s-.16,0,0,0c.16,0,0,0-.03,0-.03,0-.07,0-.1-.01-.14-.01.11.03.02,0-.15-.04-.3-.08-.44-.15l.13.06c-.29-.15-.54-.36-.73-.62l.07.09c-.26-.38-.4-.83-.36-1.29v.12s0-.06,0-.09c.02-.16-.04-.22-.19-.27-.2-.07-.5-.04-.7,0-.28.05-.57.13-.83.26-.13.07-.41.2-.44.37h0Z"/>
  <path class="cls-2" d="M61.58,17.78c.03.32.06.63.09.95v-.2c0,.18,0,.36-.06.53l.06-.2c-.03.09-.07.16-.12.24l.13-.19s-.08.09-.12.14c-.11.13.19-.14.05-.05-.04.02-.21.14-.03.03s-.03,0-.07.02c-.03.01-.07.03-.1.04l.18-.07s-.15.05-.21.07c-.11.03-.22.06-.33.09s-.22.05-.33.07c.42-.09,0,0-.11,0-.03,0-.07,0-.1,0h.18s-.16-.02-.2-.02c.16.04.21.05.13.03-.02,0-.05-.01-.07-.02-.06-.02-.12-.05-.18-.07l.21.1-.04-.02c-.24-.13-.47-.18-.74-.16s-.6.13-.82.3c-.17.14-.37.33-.38.57-.01.2.07.43.26.53.58.3,1.21.39,1.85.29.61-.09,1.26-.24,1.81-.51.61-.3,1.13-.77,1.29-1.45.06-.27.02-.57,0-.85-.02-.25-.05-.5-.07-.76-.02-.2-.29-.37-.46-.43-.25-.09-.58-.08-.83,0s-.54.2-.71.42c-.15.19-.2.36-.18.6h0Z"/>
  <path class="cls-2" d="M75.35,18.44c.25-.15.5-.3.77-.43-.08.04-.06.03.05-.02.07-.03.13-.06.2-.09.1-.04.2-.09.3-.13.27-.11.55-.21.82-.31.07-.02.14-.05.21-.07-.11.04-.1.03.03,0,.12-.04.25-.08.37-.12,1.13-.36,2.28-.69,3.38-1.15.25-.1.92-.48.59-.82s-1.09-.14-1.43,0c-.27.11-.55.22-.83.32-.04.01-.45.15-.24.08-.14.05-.28.09-.42.14-.55.17-1.09.34-1.64.52-1.21.4-2.41.84-3.5,1.51-.27.17-.67.58-.21.79s1.14.02,1.54-.22h0Z"/>
  <path class="cls-2" d="M74.05,20.3c1.12.47,2.24,1,3.39,1.38.56.19,1.15.24,1.72.39s1.08.37,1.59.62c.18.09.52.05.7.02.28-.04.58-.13.83-.27.28-.15.67-.47.24-.68-.51-.25-1.04-.48-1.59-.62s-1.16-.2-1.72-.39c-1.15-.39-2.27-.92-3.39-1.38-.45-.19-1.12.03-1.53.25-.26.14-.69.49-.24.68h0Z"/>
  <path class="cls-2" d="M52.29,17.8c-2.49-.27-4.97-.63-7.44-1.05-.5-.09-1.15.09-1.54.41-.34.28-.26.59.18.67,2.47.43,4.95.78,7.44,1.05.52.06,1.13-.08,1.54-.41.33-.27.28-.62-.18-.67h0Z"/>
  <path class="cls-2" d="M51.2,19.25c-2.31.7-4.63,1.34-6.96,1.94-.36.09-1.05.43-.92.91s.91.42,1.25.33c2.34-.59,4.66-1.24,6.96-1.94.36-.11,1.05-.42.92-.91s-.91-.43-1.25-.33h0Z"/>
</svg>