<?xml version="1.0" encoding="UTF-8"?>
<svg id="Capa_1" data-name="Capa 1" xmlns="http://www.w3.org/2000/svg" viewBox="0 0 128 119">
  <defs>
    <style>
      .cls-1 {
        fill: #e1a7cc;
      }

      .cls-2 {
        fill: #fff;
      }
    </style>
  </defs>
  <g>
    <path class="cls-1" d="M94.03,30.02c8.78,7.59,11.3,18.3,12.44,23.18,1.35,5.74,1.19,10.2,1.14,11.34-.08,1.83-.42,6.17-2.24,11.35-2.31,6.53-5.71,10.74-8.62,14.28-2.91,3.53-8.6,11.14-19.24,16.28-7.66,3.7-16,5.81-24.35,7.42-3.14.61-6.4,1.14-9.52.43-2.67-.61-5.06-2.11-7.2-3.81-2.78-2.21-5.35-4.97-6.25-8.41-1.57-6.03,2.37-12.08,6.67-16.59,4.31-4.51,9.41-8.8,11.05-14.81.32-1.2.44-2.63-.42-3.52-.63-.65-1.61-.8-2.5-.95-5.91-.97-11.6-3.33-16.46-6.84-3.92-2.83-7.53-6.9-7.55-11.74-.02-3.84,2.23-7.29,4.51-10.38,2.21-2.99,4.6-5.95,7.78-7.87,2.91-1.75,5.48-2.42,7.18-2.84,12.53-3.04,18.79-4.56,22.37-4.71,7.34-.31,20.75-.88,31.22,8.18Z"/>
    <path class="cls-2" d="M93.2,30.68c6.68,5.85,10.11,13.99,12.1,22.46,2.15,9.16,1.4,18.52-2.84,27.01-1.97,3.94-4.71,7.31-7.47,10.7-2.41,2.96-4.94,5.79-7.84,8.27-9.11,7.81-20.83,11.26-32.38,13.6-3.06.62-6.27,1.37-9.42.98-2.92-.36-5.47-1.84-7.76-3.61-4.5-3.49-7.86-8.32-6.17-14.23,1.56-5.46,5.83-9.46,9.68-13.38,3.4-3.47,7.21-7.56,8.07-12.54.42-2.42-.81-3.96-3.14-4.45-2.82-.58-5.56-1.15-8.26-2.2-5.03-1.96-10.32-5.03-13.49-9.53-1.5-2.13-2.41-4.63-2.15-7.25.3-2.98,1.93-5.64,3.64-8.03s3.35-4.58,5.44-6.46,4.62-3.25,7.32-4.09c4.82-1.5,9.87-2.48,14.79-3.6,2.88-.65,5.81-1.37,8.77-1.6,8.15-.64,16.81-.09,24.29,3.47,2.47,1.18,4.75,2.7,6.84,4.48.79.67,2.64-.47,1.66-1.31-7.82-6.66-17.91-8.64-27.93-8.5-2.95.04-5.82.22-8.72.75-4.45.82-8.86,1.93-13.26,2.99-5.52,1.33-11.04,2.49-15.37,6.47-2.1,1.93-3.87,4.2-5.53,6.52s-3.23,4.8-3.89,7.61c-1.28,5.45,1.98,10.29,6,13.65,4.55,3.79,10.19,6.35,15.93,7.7,1.21.28,2.81.27,3.93.84,1.47.74,1.02,2.63.61,3.89-.85,2.63-2.4,4.93-4.17,7.02-3.65,4.32-8.16,7.83-11.1,12.73s-3.71,10.69-.23,15.58c3.1,4.36,8.49,8.33,13.93,8.81,3.1.27,6.18-.33,9.21-.93,3.19-.63,6.37-1.34,9.51-2.18,6.16-1.66,12.33-3.84,17.84-7.11,7.54-4.49,13.41-10.99,18.65-17.94,5.76-7.64,9-17.12,8.4-26.73-.54-8.69-3.32-18.03-8.38-25.17-1.56-2.21-3.4-4.21-5.43-5.99-.78-.68-2.63.45-1.66,1.31Z"/>
  </g>
  <g>
    <path class="cls-2" d="M48.83,89.34c-2.95.42-5.73,2.56-6.53,5.78-.88,3.55,1.03,6.75,3.07,8.17,1,.7,2.15,1.15,3.34,1.41,1.32.3,2.72.37,4.03.04,2.36-.6,4.4-2.69,5.12-5.26,1.06-3.82-1.37-6.8-1.73-7.23-.25-.3-3.05-3.51-7.29-2.91Z"/>
    <path class="cls-2" d="M48.99,88.79c-3.76.58-7.3,3.2-7.91,7.14-.65,4.2,2.16,7.96,6.11,9.11,4.2,1.22,8.9-.02,11.06-4.04,1.58-2.95,1.05-6.5-1.04-9.06-1.97-2.41-5.18-3.53-8.22-3.15-.35.04-1.18.26-1.24.7-.07.46.64.44.92.4,4.58-.57,8.75,4.02,8.33,8.47-.16,1.68-.91,3.32-2.11,4.51-1.3,1.28-2.86,1.69-4.65,1.44-3.49-.5-6.34-2.86-6.96-6.42s1.72-7.43,5.4-8c.35-.05,1.18-.25,1.24-.7s-.64-.44-.92-.4Z"/>
  </g>
  <g>
    <path class="cls-2" d="M69.16,82.01c-4.65,1.46-5.98,7.62-5.38,10.97.12.69.35,2.05,1.45,3.1.82.78,1.93,1.13,3.01,1.47,2.27.7,4.79,1.38,6.97.43,1.9-.83,3.09-2.74,3.87-4.66.17-.42.48-1.18.62-2.24.09-.69.37-3.05-1.04-5.34-.89-1.44-2.04-2.19-2.55-2.51-.48-.31-3.63-2.24-6.95-1.19Z"/>
    <path class="cls-2" d="M68.97,81.3c-3.45,1.14-5.47,4.19-6.17,7.65-.29,1.44-.35,2.94-.09,4.39.35,2.01,1.41,3.51,3.3,4.35,2.11.93,4.69,1.62,7.01,1.52s4.33-1.28,5.67-3.15c2.26-3.16,3.11-7.49.9-10.92s-6.87-4.92-10.61-3.83c-.41.12-1.04.48-.9,1s.88.53,1.28.42c2.52-.73,5.57.36,7.37,2.25,2.34,2.46,2.39,5.95,1.04,8.89-.71,1.54-1.77,3.2-3.51,3.67-1.87.51-3.98-.24-5.75-.81-.89-.28-1.8-.61-2.46-1.3-.57-.59-.88-1.35-1.06-2.14-.26-1.13-.29-2.28-.16-3.44.32-2.77,1.63-6.16,4.52-7.12.4-.13,1.04-.47.9-1-.13-.5-.88-.55-1.28-.42Z"/>
  </g>
  <g>
    <path class="cls-2" d="M87.7,63.3c-3.81.64-5.77,3.65-6.33,4.51-.17.26-2.18,3.54-1.56,7.65.15.96.42,1.92.92,2.76.99,1.64,2.76,2.63,4.5,3.42,1.69.77,2.81,1.26,4.26,1.23,4.34-.1,7.02-4.83,7.2-5.15,1.66-3.04,1.57-6.57.36-9.28-.32-.72-1.06-2.32-2.79-3.6-2.86-2.12-6.08-1.63-6.57-1.54Z"/>
    <path class="cls-2" d="M87.84,62.65c-3.39.64-6.39,2.79-7.92,5.91-.99,2.02-1.46,4.27-1.27,6.51.25,2.89,1.73,4.96,4.23,6.36,2.14,1.2,4.61,2.34,7.12,2.02,2.12-.27,4.04-1.38,5.54-2.88,2.86-2.86,4.2-6.88,3.16-10.87-1.27-4.84-5.88-7.88-10.86-7.06-.4.06-1.17.27-1.23.77s.61.58.95.52c3.57-.59,6.94,1.49,8.38,4.73s1.11,7.29-1.08,10.24c-.84,1.13-1.91,2.2-3.19,2.83-2.02.99-3.97.11-5.85-.77-2.13-1-4.02-2.3-4.68-4.68-.59-2.12-.39-4.38.33-6.44.95-2.73,3.15-5.35,6.1-5.9.4-.07,1.17-.26,1.23-.77s-.61-.59-.95-.52Z"/>
  </g>
  <g>
    <path class="cls-2" d="M86.42,44.04c-.35.62-.59,1.48-.65,1.71-.14.53-.42,1.57-.32,2.65.27,2.83,3.1,4.45,3.46,4.65.76.42,1.62.74,2.48.66.45-.04.89-.18,1.31-.35.91-.36,1.79-.84,2.51-1.52,1.18-1.1,2.39-3.44,1.63-6.01-.65-2.18-2.5-3.76-4.66-4.13-2.4-.41-4.84.73-5.77,2.34Z"/>
    <path class="cls-2" d="M85.39,43.95c-.64,1.19-1.06,2.74-1.06,4.09s.48,2.55,1.31,3.57c1.31,1.61,3.49,3.01,5.63,2.81,1.59-.15,3.28-1.01,4.49-2.03,1.07-.9,1.82-2.12,2.19-3.47.79-2.88-.68-5.99-3.35-7.29-3.02-1.48-7.41-.68-9.23,2.33-.27.45.24.77.63.81.52.05,1.15-.18,1.42-.64,1.1-1.82,3.66-2.19,5.47-1.32,2.15,1.03,3.39,3.42,2.98,5.77-.18,1.06-.68,2.08-1.43,2.85-.71.72-1.93,1.47-2.96,1.56-1.36.11-2.95-1.21-3.77-2.18-.76-.9-1.24-2-1.21-3.19s.37-2.47.92-3.49c.25-.46-.22-.77-.63-.81-.49-.04-1.17.17-1.42.64Z"/>
  </g>
  <g>
    <path class="cls-2" d="M34.94,38.17c-.96.37-1.44,1.18-1.92,1.98-.54.91-1.46,2.75-.97,5.02.36,1.7,1.74,3.25,3.48,3.44.62.07,1.24-.04,1.86-.14,1.12-.19,2.31-.41,3.13-1.2.67-.64.99-1.56,1.29-2.44.33-.99.67-2.09.26-3.05-.18-.43-.41-.67-.83-1.12-1.13-1.2-2.36-1.76-2.7-1.9-1.24-.53-2.42-1.04-3.61-.58Z"/>
    <path class="cls-2" d="M34.47,37.56c-1.19.5-1.9,1.48-2.52,2.56-.5.86-.87,1.81-1.04,2.8-.42,2.46.61,5.12,3,6.14,1.29.55,2.67.31,4,.07s2.68-.66,3.64-1.67c.86-.91,1.26-2.24,1.59-3.43.18-.66.29-1.34.17-2.02s-.49-1.2-.93-1.68c-.87-.94-1.88-1.69-3.04-2.22-1.45-.66-3.01-1.2-4.59-.66-.41.14-1.03.47-.89,1.01.12.5.89.56,1.28.43.96-.33,1.96.22,2.83.6,0,0,.19.08.08.04-.13-.06.16.08.14.07.14.07.27.15.41.23.42.25.83.54,1.2.87.78.68,1.46,1.42,1.35,2.52-.1,1-.48,2.09-.94,2.98s-1.12,1.18-2.04,1.39c-.85.19-1.87.46-2.72.17-1.79-.61-2.55-2.7-2.41-4.43.07-.92.36-1.79.79-2.61.38-.73.8-1.58,1.6-1.91.39-.16.83-.66.52-1.08s-1.05-.32-1.47-.14Z"/>
  </g>
  <g>
    <path class="cls-1" d="M110.48,5.24c-1.89-2.47-39.77,26.62-64.53,45.1-2.78,2.08-4.83,3.6-6.54,6.47-2.18,3.68-1.78,6.18-4.22,7.69-1.45.9-2.02.28-6.91.74-4.16.39-6.48.55-8.5,1.97-1.89,1.33-3.14,3.39-4.1,5.5-3.19,7.03-3.64,14.94-4.03,22.65.72-2.74,1.51-5.61,3.48-7.65,1.2-1.24,2.68-2.03,4.31-2.6,9.87-3.45,11.58-2.77,14.13-5.04,3.92-3.49.86-7.62,4.84-12.65,2.48-3.14,4.62-2.72,11.91-6.01,9.63-4.35,16.4-9.8,18.89-11.84,1.75-1.43,4.97-4.35,11.4-10.18,1.51-1.37,3.09-2.8,5.13-4.69,6.27-5.79,6.47-6.22,11.6-11.01,0,0,8.52-7.96,11.27-12.29.48-.76,1.53-2.6,1.83-5.04.08-.68.13-1.03.05-1.13Z"/>
    <path class="cls-2" d="M111.5,4.86c-.83-.98-3.59.5-4.41.91-2.55,1.28-4.95,2.86-7.33,4.44-8.01,5.31-15.74,11.04-23.46,16.75-8.92,6.6-17.78,13.29-26.67,19.95-4.41,3.3-9.58,6.31-12.03,11.46-.8,1.69-1.35,5.52-3.46,6.21-.15.05-.95.01-1.27.02-1.38.01-2.75.08-4.13.2-2.82.25-5.83.38-8.43,1.6-2.89,1.35-4.65,4.08-5.88,6.91-3.06,7.02-3.48,14.81-3.86,22.35-.02.39,2.04-.01,2.16-.48.81-3.08,1.73-6.46,4.43-8.45,1.33-.98,2.91-1.45,4.45-1.96,1.43-.48,2.87-.92,4.32-1.33,2.68-.76,5.73-1.19,8.01-2.92,1.8-1.36,2.7-3.16,3-5.37.41-3.01.69-5.76,2.77-8.17,1.05-1.22,2.32-1.9,3.8-2.46,2.5-.95,5.01-1.85,7.45-2.95,8.18-3.69,15.62-8.77,22.31-14.72,7.73-6.88,15.29-13.94,22.78-21.08,2.84-2.71,5.7-5.38,8.39-8.24,1.66-1.76,3.31-3.56,4.71-5.53.66-.94,1.23-1.93,1.64-3,.29-.76.51-1.56.65-2.37.08-.48.3-1.21.13-1.68-.19-.52-2.34.13-2.17.58.37,1.03-.36,2.84-.75,3.84s-.89,1.93-1.5,2.8c-1.31,1.89-2.89,3.6-4.46,5.28-2.22,2.37-4.54,4.64-6.9,6.86-7.59,7.11-15.12,14.27-22.85,21.22-6.56,5.9-13.54,11.1-21.54,14.94-2.58,1.24-5.23,2.28-7.92,3.26-1.58.58-3.19,1.18-4.52,2.23-1.88,1.49-3.18,3.72-3.69,6.05s-.24,4.84-1.56,6.88c-2,3.07-6.34,3.34-9.53,4.3s-6.43,1.72-8.99,3.69c-2.75,2.12-3.75,5.45-4.59,8.67l2.16-.48c.34-6.68.7-13.5,2.95-19.87,1.03-2.92,2.44-6.34,5.15-8.1,2.08-1.34,5.07-1.26,7.45-1.46,3.35-.28,7.51.5,9.54-2.94.51-.87.79-1.85,1.14-2.79.56-1.52,1.24-2.98,2.18-4.31,1.68-2.39,4.11-4.08,6.42-5.81,16.31-12.19,32.43-24.69,49.17-36.31,3.09-2.14,6.19-4.27,9.43-6.19.98-.58,1.98-1.17,3.04-1.62.07-.03.16-.06.38-.14-.08.03.24-.02,0,0-.07,0-.26-.09-.12.08.35.41,2.39-.34,2.05-.75Z"/>
  </g>
  <path class="cls-2" d="M47.54,49.33c.83.23,1.32,1.25,1.75,1.93.55.87,1.07,1.76,1.56,2.67s.99,1.9,1.49,2.85c.46.88,1.08,1.79,1.21,2.78.05.4,2.24-.03,2.17-.58-.14-1.05-.82-2.04-1.31-2.97-.52-1-1.03-2.01-1.57-3-.51-.94-1.06-1.85-1.64-2.75-.49-.75-.96-1.51-1.87-1.76-.46-.13-1.1.09-1.52.28-.2.09-.74.42-.27.54h0Z"/>
</svg>