<?xml version="1.0" encoding="UTF-8"?>
<svg id="Capa_1" data-name="Capa 1" xmlns="http://www.w3.org/2000/svg" viewBox="0 0 128 119">
  <defs>
    <style>
      .cls-1, .cls-2 {
        fill: #e1a7cc;
      }

      .cls-3 {
        fill: #fff;
      }

      .cls-2 {
        stroke: #fff;
        stroke-miterlimit: 10;
        stroke-width: .75px;
      }
    </style>
  </defs>
  <g>
    <g>
      <path class="cls-1" d="M15.14,48.28c.63-.41,1.74-1.08,3.24-1.65,3.12-1.2,5.85-1.34,6.94-1.17,3.32.52,16.3,1.11,42.26,2.29,4.93.22,10.18.3,11.77.33,1.42.02,3.09.05,3.09.05,1.35.02,3.61.06,6.4.09,4.23.05,6.38.07,9.35.08,0,0,3.31.04,7.97.34,1.89.12,3.69.27,5.11,1.55.44.39,1.19,1.21,1.67,2.8,2.82,9.36-1.95,46.61-1.84,53.54.01.65.09,2.8-1.3,4.1-1.34,1.25-3.38,1.06-4.02,1.01-10.7-.83-21.43,1.69-32.16,1.43-14.1-.34-21.15-.51-24.94,0-7.53,1.01-15.19-.48-22.78-.67-.48-.01-1.86-.05-2.84-1-.73-.71-.91-1.62-1.02-2.25-.97-5.31-.95-6.16-.95-6.16.14-5.12-.18-10.26.3-15.36.54-5.73.64-9.35.6-12.02-.05-3.45-.16-5.96-.22-7.1-.26-4.64-.42-11.82.09-22.87"/>
      <path class="cls-3" d="M15.84,48.73c2.43-1.56,5.58-2.72,8.51-2.58.81.04,1.63.19,2.44.27,2.74.25,5.5.4,8.25.55,11.63.64,23.27,1.23,34.91,1.64,10.07.36,20.15.15,30.22.5,1.39.05,2.79.11,4.18.2,1.66.1,3.58.02,5.09.82,1.83.96,2.46,2.99,2.78,4.89.58,3.4.53,6.92.48,10.35-.15,9.21-.98,18.4-1.76,27.57-.3,3.51-.62,7.02-.84,10.54-.06,1.02-.12,2.04-.12,3.07s0,2-.44,2.9c-.65,1.34-1.89,1.55-3.24,1.48-7.39-.43-14.66.37-22.01.99-7.19.61-14.34.31-21.54.18-4.04-.07-8.12-.2-12.16.08-2.38.16-4.72.51-7.11.52-3.96.02-7.91-.42-11.86-.72-1.78-.14-3.56-.21-5.34-.3-1.53-.07-2.66-.7-3.05-2.28-.5-2-.78-4.12-1.01-6.17-.06-.55-.03-.07-.02-.56.04-2.07.03-4.13.02-6.2-.02-3.77.17-7.49.48-11.24.8-9.87-.19-19.72-.05-29.6.05-3.36.16-6.71.31-10.06.05-1.06-2.15-.71-2.19.2-.29,6.27-.44,12.55-.26,18.82.13,4.66.49,9.32.38,13.98-.07,3.24-.36,6.45-.63,9.68-.33,3.96-.21,7.93-.22,11.89,0,1.53-.09,3,.12,4.51.16,1.16.36,2.32.56,3.48.25,1.4.38,2.89,1.5,3.9.82.74,1.87,1.03,2.95,1.12,1.89.16,3.79.17,5.68.31,3.97.31,7.94.72,11.93.72,4.31,0,8.58-.66,12.9-.67,6.17,0,12.34.28,18.51.34,7.97.07,15.85-1.25,23.8-1.56,1.82-.07,3.65-.09,5.47,0,1.36.06,2.74.27,4.09.07,2.76-.41,4.51-2.41,4.62-5.18s.2-5.34.42-8.02c.74-9.27,1.65-18.53,2.09-27.83.2-4.23.34-8.49.12-12.72-.17-3.23-.3-7.54-3.34-9.49-1.23-.79-2.7-1.03-4.13-1.15-1.8-.16-3.61-.23-5.42-.3s-3.75-.1-5.63-.11c-5.64-.03-11.27-.13-16.91-.22-12.75-.2-25.51-.94-38.25-1.57-3.75-.19-7.5-.37-11.24-.64-2.32-.16-4.7-.64-7.01-.35-3.01.37-5.91,1.43-8.46,3.07-.4.26-.52.73-.14,1.04.41.34,1.17.09,1.55-.15h0Z"/>
    </g>
    <g>
      <path class="cls-1" d="M15.34,48.15c-2.07,1.75-1.13,6.06-.69,8.83.14.89-.21,7.93-.73,22.03-.15,4.04-.32,7.63-.49,14.16-.04,1.36-.15,6.32.5,12.66.6,5.9,1.25,7.01,1.83,7.72,2.56,3.15,7.36,2.97,12.3,2.96,7.23-.02,14.43.98,21.66.94,12.83-.07,37.38-.7,50.22.77.83.1,7.84.92,9.22-1.85.21-.42.09-.53.57-2.78.5-2.33,1.07-4.3.93-4.34-.1-.03-.26.93-1.08,1.57-.75.58-1.65.59-2.01.59-2.45.01-4.92.31-7.36.07-1.66-.16-4.44.09-9.99.58-3.67.33-5.46.62-7.41.84-5.97.68-9.01.19-15.98,0-4.7-.12-10.89.09-23.25.5,0,0-1.86.06-13.59-.84-3.9-.3-6.24-.53-7.65-2.32-.8-1.02-.95-3.1-1.23-7.26-.19-2.76-.18-5.18-.12-7.11.02-.64.05-1.12.28-4.64.32-4.79.38-5.43.46-6.68.28-4.48.27-7.96.26-10.27-.01-4.16-.17-3.21-.29-9.42-.05-2.25-.23-11.21,0-14.32.06-.8.03-1.61.05-2.41.05-1.57.09-1.9-.16-2.13-.51-.47-1.64-.02-3.19.62-1.27.52-2.39.98-3.03,1.52Z"/>
      <path class="cls-3" d="M14.48,48.02c-2.99,2.79-.83,7.57-.9,11.12-.11,5.26-.38,10.52-.58,15.78-.24,6.3-.52,12.61-.66,18.91-.06,2.71,0,5.43.17,8.14.2,3.26.36,6.69,1.23,9.86,1.38,5.02,7.54,5.24,11.84,5.25,8.27.02,16.5.98,24.77.92,12.56-.09,25.13-.4,37.7.03,2.87.1,5.74.23,8.61.48,1.86.16,3.71.43,5.59.46,2.19.03,4.68-.13,6.6-1.3s1.77-3.37,2.23-5.36c.18-.78.38-1.56.55-2.34.05-.25.26-.77.13-1.01-.33-.6-1.54-.16-1.95.16-.32.25-.38.68-.61,1.01-.71,1-1.81.72-2.91.77-2,.08-3.95.12-5.95,0-2.34-.14-4.73.17-7.07.37-6.34.55-12.6,1.61-18.98,1.36-5.12-.2-10.21-.35-15.34-.24s-10.17.5-15.24.46c-4.11-.03-8.23-.46-12.32-.77-2.47-.19-6.57.05-8.13-2.36-.54-.83-.63-1.98-.74-2.93-.21-1.83-.32-3.68-.41-5.52-.25-5.19.24-10.35.6-15.52s.52-10.09.28-15.12c-.23-4.72-.31-9.45-.33-14.18-.01-2.71.11-5.41.15-8.12.01-.78.39-2.3-.38-2.84-.95-.66-2.54,0-3.47.35-1.52.57-3.16,1.17-4.46,2.17-.38.29-.21.57.18.68.47.13,1.16-.12,1.54-.41.5-.38,3.97-2.28,4.41-1.77.28.33.04,1.41.03,1.78-.03.93-.03,1.85-.08,2.78-.12,2.52-.1,5.05-.08,7.58.04,4.47.2,8.93.36,13.4.37,10.74-1.52,21.43-.77,32.15.15,2.12-.06,5.2,1.58,6.84,2,2,5.53,1.91,8.13,2.11,4.28.33,8.59.75,12.88.81,4.88.07,9.79-.32,14.66-.44s10.12-.03,15.2.18c3.11.13,6.19.13,9.29-.18s6.11-.74,9.17-1.02c2.65-.24,5.37-.61,8.04-.52,1.72.06,3.41.14,5.14.07,1.62-.07,3.45.12,5-.45.62-.23,1.23-.57,1.67-1.07.22-.24.39-.51.54-.8.09-.18.42-.61.11-.37l-1.95.16c.11.21-.13.81-.18,1.02-.19.83-.4,1.66-.59,2.5-.23,1.03-.28,2.22-.62,3.22-.61,1.77-3.59,1.6-5.07,1.57-1.71-.03-3.4-.28-5.1-.43-2.68-.23-5.36-.37-8.05-.47-12.05-.46-24.11-.21-36.16-.09-7.31.07-14.55-.6-21.85-.85-3.56-.12-7.27.27-10.78-.43-1.92-.38-4.06-1.37-4.89-3.26-.97-2.2-1.08-4.9-1.31-7.26-.31-3.22-.47-6.46-.48-9.7,0-5.35.3-10.7.5-16.04.22-5.99.47-11.98.68-17.98.05-1.3.11-2.6.1-3.9-.01-1.74-.54-3.45-.61-5.2-.06-1.31.02-2.99,1.05-3.95.89-.83-1.25-.71-1.72-.27Z"/>
    </g>
    <g>
      <path class="cls-1" d="M45.34,45.84c-.13-1.32-.26-2.63-.39-3.95-.02-.22-.05-.45-.17-.63-.22-.32-.65-.39-1.03-.42-2.68-.26-5.35-.51-8.03-.73-.47-.04-1.01-.05-1.35.28-.3.3-.32.78-.32,1.21,0,1.22,0,2.44,0,3.67"/>
      <path class="cls-3" d="M46.43,45.55l-.3-3.07c-.08-.84-.05-1.72-.94-2.09-.84-.35-1.91-.3-2.81-.39-1-.1-2.01-.19-3.01-.28s-2.01-.18-3.01-.26c-.94-.08-1.99-.04-2.74.61-.7.61-.65,1.44-.65,2.29,0,1.01,0,2.01,0,3.02s2.18.54,2.18-.24,0-1.58,0-2.37c0-.43,0-.86,0-1.29,0-.24.12-.58.09-.8.11-.15.07-.16-.12-.01-.2.07-.24.1-.13.09.04.03.51.03.55.04.37.03.74.06,1.12.09.86.07,1.71.15,2.57.22s1.64.15,2.45.23c.41.04.82.08,1.23.12.21.02.56-.01.75.12.24.16.22.57.24.83.04.4.08.8.12,1.21l.25,2.52c.08.79,2.26.3,2.17-.58h0Z"/>
    </g>
    <g>
      <path class="cls-1" d="M69.77,17.17c12.79,2.15,25.96-.23,38.92.34.36.02,1.42.06,2.25.78.83.72,1.03,1.77,1.11,2.26,1.5,8.63,1.2,14.06.72,17.99-.07.58-.21,1.6-.95,2.49-1.12,1.33-2.91,1.54-4.15,1.65-4.62.42-8.38.17-8.65.15-2.26-.15-1.12.07-9.67.17-8.5.11-6.63-.09-11.98,0-7.85.13-10.13.52-11.64-1.22-.67-.78-.88-2.34-1.26-5.44-.31-2.48-.4-4.49-.44-9.09-.06-7.39.14-8.63,1.15-9.47,1.44-1.2,3.57-.79,4.58-.62Z"/>
      <path class="cls-3" d="M69.12,17.8c6.67,1.09,13.42,1.05,20.16.78,3.45-.14,6.89-.33,10.34-.43,1.77-.05,3.53-.08,5.3-.06,1.34.01,3.26-.28,4.51.33,1.16.56,1.42,1.75,1.62,2.91.28,1.63.5,3.26.68,4.9.26,2.51.4,5.03.33,7.55-.05,1.85-.05,3.9-.51,5.7-.8,3.15-5.02,2.72-7.57,2.78-2.32.05-4.64-.19-6.96-.1-4.11.17-8.22.24-12.33.22-3.05-.01-6.09-.06-9.14.01-2.11.05-4.27.22-6.37.02-1.02-.1-2.06-.39-2.62-1.31-.51-.84-.59-2.04-.73-2.98-.18-1.28-.35-2.57-.46-3.87-.26-2.97-.24-5.96-.25-8.93,0-2-.17-4.24.33-6.21.42-1.65,2.11-1.57,3.66-1.3.5.08,1.19,0,1.54-.41.27-.32.29-.77-.23-.85-2.13-.36-4.65-.45-6.31,1.21-.77.78-.95,1.88-1.04,2.92-.26,2.75-.14,5.56-.11,8.32.03,2.38.09,4.76.36,7.13.21,1.86.15,4.72,1.5,6.22.88.97,2.18,1.27,3.44,1.4,4.18.42,8.47-.13,12.67-.06,4.43.08,8.87.04,13.31-.1,2.29-.07,3.81-.05,6.15.01,2.83.07,5.82.1,8.61-.43s4.54-2.15,4.89-4.95c.63-5.03.39-10.13-.31-15.13-.21-1.5-.24-3.42-1.17-4.7-.78-1.08-2.05-1.43-3.31-1.53-4.08-.3-8.24-.06-12.32.1-8.78.36-17.63,1.02-26.35-.41-.5-.08-1.18,0-1.54.41-.27.32-.29.77.23.85Z"/>
    </g>
    <g>
      <path class="cls-1" d="M75.75,61.22c-3.8,1.36-5.93,4.05-6.82,5.2-.51.66-2.22,2.98-3.09,6.54-.4,1.65-1.75,7.14,1.34,12.38.56.95,2.37,3.94,5.98,5.55,2.13.95,4.1,1.07,6.02,1.18,1.3.07,3.33.18,5.86-.41,1.35-.31,4.21-1.01,7.03-3.3,2.91-2.38,4.16-5.15,4.92-6.89.66-1.51,1.36-3.14,1.45-5.44.02-.54.1-3.12-1.24-6.1-1.15-2.55-2.75-4.07-3.52-4.78-2.11-1.96-4.19-2.83-5.34-3.3-1.57-.64-3.81-1.31-6.54-1.41-1.43-.05-3.55-.12-6.05.77Z"/>
      <path class="cls-3" d="M75.37,60.96c-5.94,2.24-9.82,7.55-10.94,13.71-1.24,6.78,1.66,14.36,8.46,16.92,3.52,1.33,8.06,1.32,11.71.55s6.96-2.26,9.57-4.86c2.37-2.36,4.14-5.71,4.97-8.95.91-3.55.12-7.41-1.84-10.47-4.5-7-14.28-9.48-21.94-6.89-.24.08-.85.32-.64.64.19.29,1.19-.04,1.4-.11,6.21-2.1,14.11.76,18.14,5.75,2,2.48,3.16,5.73,3.08,8.93-.08,2.97-1.45,6.06-3.01,8.55-3.9,6.23-11.76,8.24-18.64,6.34-6.48-1.79-9.9-8.71-9.36-15.05.51-5.99,3.92-12.32,9.78-14.52.23-.09.86-.31.64-.64-.19-.29-1.2.03-1.4.11Z"/>
    </g>
    <g>
      <path class="cls-1" d="M85.56,60.96c-1.61-.21-9.43-1.16-15.79.14-3.33.68-5.42,1.82-6.2,2.27-1.25.72-2.31,1.34-3.18,2.42-.92,1.14-1.74,2.96-1.41,8.34.33,5.23.5,8.04,2.25,11.55,1.11,2.22,3.5,7.03,8.53,8.71.61.2,2.81.88,7.66.02,3.31-.58,8.66-2.01,14.63-6.05"/>
      <path class="cls-3" d="M85.94,60.19c-5.97-.77-12.42-1.04-18.25.66-2.54.74-5.26,1.92-7.27,3.69-1.63,1.43-2.31,3.26-2.52,5.38-.32,3.35.02,6.96.5,10.28.37,2.6,1.27,4.95,2.51,7.25,2.29,4.26,6.06,7.9,11.11,8.13,7.31.33,14.79-2.77,20.76-6.75.41-.27.51-.76.13-1.09-.41-.35-1.17-.12-1.56.14-5.01,3.35-10.89,5.77-16.97,6.13-1.94.12-3.72-.07-5.45-.97-2.32-1.21-4.06-3.23-5.39-5.44-1.15-1.9-2.11-3.94-2.62-6.11-.7-2.98-.86-6.21-.9-9.26-.03-1.91-.04-4.23,1.09-5.88,1.23-1.79,3.72-2.93,5.72-3.66,5.74-2.09,12.38-1.73,18.35-.97,1.04.13,2.23-1.35.76-1.54h0Z"/>
    </g>
    <g>
      <path class="cls-1" d="M78.73,67.44c-4.4,1.5-6.4,7.19-6.02,10.94.15,1.47.65,2.44.77,2.67.97,1.82,2.52,2.68,3.6,3.25,3.49,1.86,6.93,1.37,8.16,1.13,1.01-.2,2.21-.46,3.47-1.36,1.62-1.16,2.32-2.67,2.77-3.66.51-1.14,1.46-3.25.89-5.86-.56-2.56-2.24-4.07-3-4.73-2.13-1.86-4.46-2.28-5.76-2.49-1.45-.24-3.09-.51-4.88.11Z"/>
      <path class="cls-3" d="M78.51,66.64c-4.04,1.46-6.41,5.46-6.88,9.61-.22,1.9.02,3.91,1.02,5.58,1.11,1.87,3.18,3.11,5.16,3.87,4.15,1.57,9.95,1.14,13.03-2.35,2.88-3.26,3.83-8.49,1.24-12.16-1.36-1.93-3.43-3.42-5.68-4.13-2.48-.79-5.37-1.2-7.89-.42-1.33.41-.91,2.03.43,1.61,1.85-.58,3.89-.26,5.74.21,1.73.45,3.3,1.37,4.54,2.66,1.39,1.44,2.27,3.34,2.21,5.36-.05,1.65-.66,3.22-1.43,4.66-1.8,3.41-5.92,4.17-9.43,3.45-3.72-.76-6.86-3.34-6.81-7.35.04-3.41,1.71-7.74,5.18-9,.44-.16,1.02-.53.87-1.09-.14-.51-.86-.67-1.3-.51Z"/>
    </g>
    <g>
      <path class="cls-1" d="M78.23,72.62c-.92.66-1.15,1.79-1.36,2.87-.24,1.25-.31,2.13-.03,3.27.26,1.07,1.03,2.08,2.1,2.31.17.04.35.05.51-.02.21-.09.34-.31.42-.52.37-1.06-1.4-3.4-.76-5.16.27-.75.84-1,.84-1.88,0-.15-.02-.96-.51-1.19-.45-.21-1.04.2-1.21.33Z"/>
      <path class="cls-3" d="M77.52,72.15c-.81.61-1.25,1.43-1.52,2.39-.25.91-.44,1.9-.44,2.85,0,1.89.83,3.98,2.88,4.41,1.09.23,2.4-.33,2.57-1.54.09-.65-.18-1.32-.38-1.92-.24-.69-.53-1.42-.56-2.15-.01-.33.03-.66.18-.95.18-.36.46-.64.63-1.04.28-.67.26-1.63-.22-2.22-.79-.98-2.3-.44-3.14.16-.36.26-.56.79-.13,1.08s1.14.15,1.56-.14c.04-.03.25-.2.11-.08.02-.02.16-.05.06-.04-.11.01-.26-.02-.36,0-.15.03-.06-.08-.04.02.02.13.09.26.11.39.01.06.03.28.02.11,0,.12,0,.24-.02.35-.04.23-.18.44-.29.59-.37.54-.65,1.1-.67,1.77-.02.63.11,1.25.29,1.84.17.55.38,1.09.54,1.64.05.18.12.48.13.6,0-.02,0,.14-.02.2,0,.01-.01.11-.01.04l-.05.1c.5-.46.74-.56.72-.3-.06-.04-.19-.05-.25-.08-.15-.07-.29-.17-.41-.28-.23-.2-.42-.47-.57-.73-.31-.55-.44-1.26-.46-1.88-.03-.83.14-1.67.31-2.48.14-.64.32-1.37.87-1.79.35-.27.57-.78.13-1.08s-1.16-.16-1.56.14Z"/>
    </g>
    <g>
      <path class="cls-1" d="M103.47,22.05c-2.2.06-27.32.56-29.07.38-.12-.01-.6-.06-1.12.16-.41.17-.71.53-.94.9-.66,1.08-.77,2.4-.84,3.67-.18,2.99-.27,5.99-.27,8.99,0,.2,0,.41.08.6.13.33.45.54.78.66.54.2,1.13.22,1.71.23,10.11.22,20.24-.01,30.33-.71.88-.06,1.88-.2,2.36-.93.28-.43.31-.97.32-1.49.08-2.49,0-8.86.16-10.72.01-.15.04-.45-.12-.77-.54-1.07-2.63-.99-3.38-.97Z"/>
      <path class="cls-3" d="M103.59,21.32c-9.25.25-18.54.54-27.79.42-.67,0-1.36-.1-2.02,0-2.13.35-3.01,2.3-3.27,4.26-.34,2.59-.32,5.29-.36,7.9-.01.94-.26,2.26.07,3.16s1.46,1.18,2.32,1.28c2.72.32,5.59.13,8.33.13s5.49-.03,8.24-.1,5.64-.17,8.45-.31c1.33-.07,2.65-.14,3.97-.22,1.25-.08,2.57-.05,3.78-.34.93-.23,1.84-.69,2.29-1.57.4-.79.32-1.78.33-2.64.03-1.97.02-3.95.03-5.92,0-.92.02-1.84.05-2.75.03-.65.18-1.37-.12-1.97-.72-1.45-2.95-1.36-4.31-1.33-1.19.03-1.71,1.51-.23,1.47.54-.01,1.12-.03,1.64.11.83.23.88.74.83,1.5-.07,1.32-.07,2.65-.08,3.97,0,1.53,0,3.05-.02,4.58,0,.62,0,1.24-.04,1.86s-.16,1.13-.79,1.33c-.51.16-1.14.1-1.66.14-4.88.32-9.77.54-14.66.65-2.48.05-4.95.08-7.43.08s-4.96.12-7.4-.09c-.82-.07-1.3-.13-1.43-1.07-.07-.53,0-1.12,0-1.66.01-1.18.04-2.37.09-3.55.04-1.1.09-2.21.16-3.31s.06-2.37.59-3.34c.48-.89.87-.78,1.68-.76.66.01,1.33,0,1.99,0,4.74-.01,9.49-.1,14.23-.18,4.1-.07,8.19-.13,12.29-.24,1.19-.03,1.71-1.51.23-1.47Z"/>
    </g>
    <rect class="cls-2" x="78.3" y="42.96" width="21.7" height="5.25" rx="2.41" ry="2.41"/>
  </g>
  <g>
    <path class="cls-1" d="M82.23,24.12c-1.9-1.76-3.81-3.53-5.71-5.29-.28-.26-.57-.54-.64-.91-.1-.51.25-.99.57-1.39.91-1.13,1.83-2.26,2.74-3.39,1.48-1.83,2.97-3.68,4.78-5.19-5.35.39-10.16,3.35-15.4,4.53-.24.05-.49.1-.72.01-.21-.08-.36-.27-.5-.44-2.35-3-4.37-6.26-6-9.71-.36,3.21-.71,6.43-1.07,9.64-.03.24-.06.5-.22.69-.17.19-.44.26-.69.31-4.23.87-8.58.74-12.9.62,2.59,2.5,6.3,3.37,9.43,5.15.1.06.21.13.23.25.02.14-.11.26-.22.35-2.47,1.81-5.23,3.23-8.14,4.18-.54.18-1.17.41-1.34.96,4.9.59,9.84.87,14.77.85.28,0,.62.02.76.27.06.1.07.22.08.34.27,2.82.44,5.66.52,8.49,1.96-3.08,4.42-5.84,7.26-8.13.3-.25.62-.49.97-.64.39-.16.81-.22,1.23-.27,3.31-.41,6.61-.82,9.92-1.23"/>
    <path class="cls-3" d="M83.24,23.7l-3.92-3.64c-.63-.58-1.36-1.14-1.92-1.79-.81-.95.05-1.71.68-2.49,2.14-2.64,4.17-5.45,6.77-7.67.65-.56-.26-.78-.71-.74-4.65.4-8.8,2.49-13.18,3.89-.55.18-1.11.36-1.67.49-.73.17-.72.11-1.19-.47-.72-.92-1.4-1.88-2.05-2.86-1.36-2.04-2.55-4.17-3.61-6.37-.3-.63-2.1-.24-2.17.43-.21,1.85-.41,3.69-.62,5.54-.1.88-.2,1.77-.29,2.65-.04.35-.01,1.13-.16,1.45-.24.53-.5.44-1.09.53-3.71.58-7.47.46-11.21.34-.3,0-2.02.48-1.44,1.01,1.32,1.22,2.86,2.1,4.48,2.86.85.4,1.72.76,2.58,1.15.37.16.73.33,1.1.51.29.14,1.06.37,1.25.6.37.07.26.21-.34.42-.24.17-.48.33-.73.48-.37.24-.74.47-1.12.69-.93.54-1.89,1.03-2.88,1.45-1.37.59-3.63.85-4.38,2.3-.16.3,0,.54.34.58,4,.47,8.02.77,12.05.85.49,0,.99.02,1.48.02.19,0,1.34-.11,1.48,0,.52.4.34,2.06.39,2.66.16,2.04.26,4.09.32,6.14.02.74,1.88.05,2.1-.28,1.87-2.89,4.12-5.53,6.79-7.71,1.43-1.18,3.68-1.03,5.47-1.25,1.98-.25,3.97-.49,5.95-.74,1.03-.13,1.82-1.34.31-1.16-2.31.29-4.63.57-6.94.86-1.93.24-4.16.2-5.79,1.38-3.11,2.26-5.73,5.38-7.8,8.59l2.1-.28c-.06-2.21-.18-4.41-.35-6.61-.06-.71.08-2.04-.52-2.53-.48-.39-1.33-.26-1.89-.26-4.61,0-9.21-.28-13.79-.82l.34.58c.42-.8,2.42-1.13,3.21-1.47.89-.38,1.76-.81,2.61-1.27,1.03-.56,2.01-1.18,2.97-1.85.35-.25,1.1-.64,1-1.2-.1-.52-1.11-.83-1.51-1.03-.96-.48-1.95-.9-2.94-1.33-1.9-.84-3.75-1.74-5.29-3.16l-1.44,1.01c4.42.13,9.13.4,13.46-.69.68-.17,1.42-.46,1.72-1.14.36-.83.3-2.03.41-2.93.27-2.41.54-4.82.8-7.23l-2.17.43c1.1,2.29,2.35,4.51,3.76,6.63.72,1.07,1.44,2.25,2.32,3.21.67.73,1.44.73,2.37.53,5.16-1.09,9.79-4.01,15.11-4.47l-.71-.74c-2.9,2.48-5.38,5.68-7.66,8.73-.35.47-.79,1.05-.65,1.69.18.83,1.22,1.5,1.79,2.03,1.55,1.43,3.09,2.87,4.64,4.3.54.5,2.58-.32,2.02-.84h0Z"/>
  </g>
</svg>