<?xml version="1.0" encoding="UTF-8"?>
<svg id="Capa_1" data-name="Capa 1" xmlns="http://www.w3.org/2000/svg" viewBox="0 0 60 60">
  <defs>
    <style>
      .cls-1 {
        fill: #e1a7cc;
        stroke: #e1a7cc;
      }

      .cls-1, .cls-2 {
        stroke-miterlimit: 10;
      }

      .cls-2 {
        fill: #452155;
        stroke: #452155;
      }
    </style>
  </defs>
  <path class="cls-2" d="M26.63,18.29c.05-.05.03-.28-.34-1.21-.69-1.76-1.39-2.93-1.68-3.46-.98-1.75-1.94-3.49-1.63-5.22.27-1.5,1.37-2.37,1.83-2.73.93-.73,1.77-.83,3.46-1.03.76-.09,1.63-.07,3.36-.03,2.05.05,2.45.14,2.88.33.6.26,1.64.72,2.21,2,.53,1.18.37,2.42.29,2.98-.14.98-.64,1.92-1.63,3.77-.5.93-1.38,2.49-1.68,4.31-.04.27-.09.62,0,.67.2.12.89-1.34,1.25-2,.77-1.42,1.93-2.47,4.23-4.49,2.53-2.23,3.79-3.34,5.48-4.25,1.43-.77,2.73-1.47,4.57-1.64.9-.08,3.58-.2,6.34,1.76,1.25.89,2.61,1.86,3.27,3.95.11.36.74,2.47,0,4.68-.68,2.02-2.1,2.89-3.32,3.64-1.76,1.09-3.35,1.29-6.1,1.64-1.39.18-1.42.09-3.6.36-1.75.22-3.47.49-3.8.55-1.62.26-1.72.31-2.64.43-1.74.21-2.64.18-2.64.3,0,.11.76.25,3.22.61,3.63.53,3.56.46,4.37.64,1.77.4,3.05.94,4.61,1.61,2,.86,3.01,1.29,3.94,2.06,1.53,1.27,2.44,2.77,3.08,3.83.65,1.07,1.33,2.2,1.83,3.95.35,1.24.77,2.74.48,4.62-.3,1.9-1.17,3.13-1.59,3.7-.38.53-1.15,1.58-2.4,2.13-1.88.82-3.6-.04-4.37-.43-1.43-.72-2.26-1.72-3.85-3.7-1.49-1.86-1.49-2.26-3.89-5.65-1.45-2.05-2.18-3.08-2.98-3.95-1.54-1.67-2.11-1.8-3.32-3.46-.58-.8-1.2-1.56-1.78-2.37-.67-.94-.99-1.45-1.15-1.35-.26.15.05,1.67.19,2.32.56,2.61,1.36,4.5,1.49,4.8,1.38,3.26,1.85,6.28,2.21,8.56.42,2.69.67,4.3.29,6.44-.39,2.18-1.24,3.76-2.07,5.28-1,1.86-1.5,2.78-2.45,3.4-2.08,1.35-4.34.19-4.71,0-1.61-.83-2.5-2.28-2.98-3.1-2.17-3.66-1.92-8.01-1.83-9.52.15-2.61.76-4.65,1.25-6.33.84-2.85,1.63-4.15,2.11-6.75.24-1.29.22-1.92.62-3.63.18-.75.37-1.43.24-1.52-.15-.11-.62.64-.96,1.15-.9,1.33-1.33,1.54-2.93,3.28-1.44,1.56-2.49,2.89-3.6,4.31-3.2,4.07-5.38,7.41-5.38,7.41-.98,1.49-1.48,2.36-2.55,3.27-1.78,1.51-3.45,1.73-3.8,1.77-.89.1-2.13.24-3.36-.61-2.03-1.39-2.51-4.4-2.69-5.53-.15-.94-.34-2.83.19-4.98.8-3.23,2.72-5,4.47-6.62,2.03-1.87,3.88-2.72,5.14-3.28,1.36-.61,2.87-1.28,4.9-1.4.84-.05,1.22.03,2.69-.06.86-.05,3.4-.21,3.41-.55,0-.27-1.57-.55-2.98-.79-2.36-.41-4.09-.54-5.43-.67-3.13-.29-4.7-.43-6.01-.73-2.96-.67-4.55-1.07-5.91-2.79-.36-.45-1.87-2.38-1.68-4.92.14-1.82,1.09-3.02,1.97-4.13.28-.36,1.63-2,3.89-2.92,2.3-.93,4.24-.57,5.29-.36,1.83.36,3.12,1.13,4.47,1.94,1.87,1.12,3.14,2.27,4.37,3.4,1.55,1.41,2.75,2.5,4.13,4.31.75.97,1.53,2.14,1.68,2Z"/>
  <path class="cls-1" d="M28.56,18.48c-.78.52-1.15,1.36-1.3,1.7-.17.39-.88,2.05-.34,3.16.38.79,1.28.87,3.08,1.03,1.52.14,2.29.2,2.93-.36.62-.55,1.17-1.6,1.11-2.78-.09-1.67-1.34-2.54-1.63-2.74-.96-.66-1.92-.52-2.6-.43-.39.06-.79.12-1.25.43Z"/>
</svg>