<?xml version="1.0" encoding="UTF-8"?>
<svg id="Capa_1" data-name="Capa 1" xmlns="http://www.w3.org/2000/svg" viewBox="0 0 841.89 595.28">
  <defs>
    <style>
      .cls-1 {
        letter-spacing: .01em;
      }

      .cls-2, .cls-3 {
        fill: #e2aace;
        font-family: CHARLEY, CHARLEY;
        font-size: 136px;
      }

      .cls-4 {
        fill: #855097;
      }

      .cls-5 {
        letter-spacing: .02em;
      }

      .cls-3 {
        opacity: .18;
      }

      .cls-6 {
        letter-spacing: .03em;
      }

      .cls-7 {
        fill: #8d5aa1;
        opacity: .39;
      }

      .cls-8 {
        letter-spacing: -.04em;
      }

      .cls-9 {
        letter-spacing: 0em;
      }
    </style>
  </defs>
  <path class="cls-7" d="M343.27,481.44c.95.22,2.14.02,2.98-.73,1.13-1.01,1.14-2.55,1.12-2.98-.09-2.41-2.17-2.9-4.14-6.72-.89-1.72-1.33-2.58-1.3-3.72.06-2.75,2.41-3.56,2.51-6.54.01-.41.08-2.54-1.27-3.51-1.44-1.03-3.78-.22-5.09.82-1.9,1.5-2.63,4.26-2.22,6.55.68,3.75,4.02,3.97,4.47,7.68.28,2.34-.95,3.03-.23,5.43.15.51.96,3.22,3.16,3.72Z"/>
  <circle class="cls-7" cx="340.4" cy="404.01" r="6.27"/>
  <path class="cls-4" d="M343.6,478.69c.95.22,2.14.02,2.98-.73,1.13-1.01,1.14-2.55,1.12-2.98-.09-2.41-2.17-2.9-4.14-6.72-.89-1.72-1.33-2.58-1.3-3.72.06-2.75,2.41-3.56,2.51-6.54.01-.41.08-2.54-1.27-3.51-1.44-1.03-3.78-.22-5.09.82-1.9,1.5-2.63,4.26-2.22,6.55.68,3.75,4.02,3.97,4.47,7.68.28,2.34-.95,3.03-.23,5.43.15.51.96,3.22,3.16,3.72Z"/>
  <circle class="cls-4" cx="340.4" cy="401.05" r="6.27"/>
  <g>
    <path class="cls-7" d="M61.75,227.89c-.07-.13-1.46-2.82-2.24-5.18-1.58-4.75-1.07-9.22-.65-12.38,1.38-10.42,2.45-11.67,3.42-19,1.3-9.88.5-16.26,0-19.23-.56-3.42-1.06-6.29-2.89-9.66-1.54-2.83-4.61-8.47-10.82-9.8-6.48-1.4-11.78,2.89-12.86,3.8-5.12,4.38-5.79,10.54-6.11,13.5-.77,7.18,1.83,12.77,3.47,16.26.84,1.8,2.78,4.61,6.64,10.23,5.07,7.37,7.6,11.05,9.75,13.47,1.96,2.21,3.42,3.58,4.81,6.35.83,1.65,2.26,4.58,1.98,8.4-.13,1.73-.38,5.19-2.81,7.01-1.14.85-1.99.77-7.53,1.24-4.09.35-6.13.52-6.73.71-3.46,1.11-7.05,4.34-8.18,8.68-1.43,5.49,1.79,10.03,3.42,12.33.91,1.28,4.1,5.79,9.51,7.16,3.17.81,4.6-.1,7.36,1.37.92.49,2.48,1.51,4.92,5.14,3.36,5,2.8,6.65,5.18,10.45,1.26,2.02,4.31,6.9,9.92,8.48.75.21,7.06,1.89,11.2-1.84,2.56-2.31,2.97-5.5,3.33-8.68.25-2.18.62-7.75-2.6-15.83-2.2-5.51-4.87-9.17-10-16.2-2.7-3.7-5.28-7.48-7.99-11.18-.65-.89-2.05-2.8-3.49-5.57Z"/>
    <path class="cls-7" d="M128.04,439.82c-.48-.54-6.81-7.76-11.48-16.34-6.15-11.33-4.76-16.49-9.83-32.54-4.92-15.55-7.37-23.32-13.35-27.73-11.75-8.66-31.42-5.11-43.89,4.3-2.24,1.69-16.12,12.16-16.26,29.38-.15,18.95,16.47,30.4,18.37,31.66,5.05,3.36,16.91,5.55,40.43,9.79,14.27,2.57,15.85,2.52,21.53,4.28,12.77,3.96,21.79,9.51,28.55,13.74,6.24,3.9,14.53,9.15,23.45,18.14,8.17,8.23,13.05,15.75,17.89,23.32,10.87,16.96,9.91,21.22,18.68,30.71,5.96,6.45,11.63,12.59,20.94,14.08,14.77,2.35,26.25-9,27.34-10.11,2.1-2.14,7.12-7.39,8.62-15.54,2.65-14.36-7.75-26.25-13.06-32.31-9.99-11.41-21.77-15.82-26.48-17.52-8.05-2.9-15.24-3.69-20.08-4.22-9.79-1.07-10.8.2-21.7-.66-8.66-.68-15.55-1.23-24.1-4.5-10.21-3.91-16.87-9.43-19.08-11.36-2.9-2.53-4.89-4.77-6.5-6.59Z"/>
    <path class="cls-7" d="M81.18,338.22c-3.52,1.22-3.43,2.12-5.55,2.46-3.36.54-4.13-1.66-8.38-1.86-1.17-.05-5.38-.25-7.81,2.61-1.13,1.34-2.42,3.98-1.26,6.31,1.29,2.57,4.81,3.22,7,2.45.54-.19.74-.38,2.61-1.9,3.04-2.47,4.56-3.71,5.03-3.91,2.68-1.13,5.98-.2,8.02,1.16,1.58,1.06,1.31,1.65,4.21,4.95,2.51,2.86,3.8,4.3,5.42,4.47,2.18.23,4.39-1.33,5.45-3.13,1.89-3.22-.07-7.01-.86-8.54-.38-.74-2.82-5.48-7.44-6.21-2.14-.34-3.98.3-6.44,1.15Z"/>
    <path class="cls-7" d="M255.96,253.62c3.69-.65,6.04-2.81,7.24-3.91,1.01-.93,3.61-3.32,4.6-7.14,1-3.87-.67-5.24,0-8.41.72-3.38,3.35-5.29,8.22-8.71,7.35-5.16,10.07-4.69,16.92-9.78,3.63-2.7,5.45-4.05,6.95-6.46,4.87-7.82,1.51-17.49.68-19.86-.82-2.35-4.01-11.1-13.4-15.85-7.64-3.86-14.87-2.79-17.51-2.25-6.78,1.4-11,5.02-13.7,7.34-3.35,2.88-6.78,5.83-7.83,10.86-.81,3.9.22,7.17.59,8.32.59,1.81,1.76,5.4,4.99,7.53,3.19,2.1,5.1.63,7.53,2.84,1.92,1.74,2.81,4.55,2.54,6.95-.41,3.79-3.63,6.06-6.26,7.92-4.77,3.37-6.63,2.3-12.42,5.67-3.86,2.25-6.99,4.07-8.02,7.63-1.2,4.12,1.15,8.01,1.86,9.2,2.3,3.82,5.75,5.41,7.83,6.36,2.25,1.03,5.32,2.44,9.2,1.76Z"/>
    <path class="cls-7" d="M190.39,533.64c.06-.66.16-1.79-.14-3.18-.1-.46-.66-2.97-2.6-4.67-3.16-2.76-7.91-1.54-8.88-1.29-3.36.86-3.11,2.29-7.17,3.78-1.64.6-4.94,1.76-8.7.8-1.4-.36-4.12-1.06-5.14-3.34-.81-1.81-.16-3.75.15-4.68.76-2.29,1.83-2.41,2.65-4.29,1.04-2.37.88-5.68-.86-8.16-.3-.43-2.91-4.03-6.62-3.4-3,.51-4.36,3.38-4.43,3.53-1.16,2.53-.13,5.1.33,6.25,1.24,3.1,2.97,3.23,3.45,5.64.36,1.82-.51,2.36-1.47,5.85-.78,2.82-1.78,6.5-.51,10.18.35,1,1.42,4.11,4.19,5.23,2.77,1.11,5.78-.35,7.72-1.28,3.27-1.58,3.4-2.98,6.28-3.69.7-.17,2.81-.67,5.18.04,2.1.63,2.18,1.54,5.09,2.93,1.95.93,3.22,1.54,4.92,1.4,2.92-.25,4.72-2.52,4.96-2.84,1.3-1.69,1.47-3.51,1.6-4.79Z"/>
    <path class="cls-7" d="M357.88,516.06c-1.01-4.62-2.64-7.87-3.73-10-3.66-7.17-8.26-11.74-9.9-13.3-5.56-5.26-7.05-4.14-10.38-8.44-1.49-1.93-5.15-6.82-4.85-13.68.26-5.94,3.34-9.97,4.29-11.18.91-1.15,4.56-5.79,10.61-7.02,4.65-.94,6.27,1.04,11.27.82,5.05-.22,8.61-2.45,13.18-5.39,5.15-3.31,14.72-9.47,19.7-22.07,1.28-3.24,4.2-11.82,2.33-22.53-.75-4.32-2.76-15.84-12.44-22.4-5.55-3.76-10.98-4.09-12.05-4.14-2.87-.13-9.06-.42-13.41,4.07-4.72,4.87-3.82,11.8-3.71,12.51.82,5.6,4.23,5.81,5.26,11.26,1.09,5.76-1.52,11.88-5.45,15.67-1.43,1.38-5.66,5.46-10.55,4.59-6.77-1.21-9.31-10.96-9.74-12.77-1.72-7.3.8-13.43,3.67-20.41,1.44-3.51,4.35-10.41,10.71-17.27,6.35-6.86,9.25-6.23,12.48-11.83,1.29-2.23,5.06-9.67,2.37-17.49-3.82-11.14-17.5-13.61-20.13-14.09-3.77-.68-12.66-2.29-17.98,3.17-3.46,3.55-4.73,9.4-4.02,13.97.59,3.83,2.27,4.78,1.87,8.04-.42,3.5-2.87,6.76-5.79,8.54-4.86,2.96-7.91-.09-12.56,2.77-3.04,1.87-5.47,5.47-5.66,9.43-.29,6.05,4.77,9.99,5.58,10.62,3.63,2.82,5.49,1.45,10.03,3.7,7.83,3.88,10.91,12.25,11.53,13.94,2.46,6.7,1.54,12.46,1.09,15.07-1.59,9.14-6.78,14.95-8.8,17.14-1.07,1.16-9.63,10.23-23.06,12.05-7.52,1.02-8.82-1.28-16.47.54-4.64,1.1-10.97,2.61-14.75,8.42-4.42,6.8-2.11,14.52-1.77,15.56.24.74,3.24,9.71,11.5,12.12,6.31,1.85,11.98-1.21,16.96-3.9,5.78-3.12,5.84-5,15.25-11.41,8.03-5.48,10.33-5.71,11.97-5.59,6.9.49,10.99,7.81,11.25,8.29,2.43,4.5,1.99,8.84,1.82,10.13-.26,1.89-1.14,5.79-7.99,13-8.22,8.63-11.32,7.62-16.02,14.17-2.04,2.85-5.96,8.33-5.09,14.98.72,5.49,4.33,8.93,8.69,13.09,4.39,4.19,10.83,10.33,21.24,11.68,2.9.38,11.99,1.56,20.62-4.32,7.07-4.82,10.98-12.44,11.81-19.32.56-4.64-.31-8.74-.76-10.79Z"/>
    <path class="cls-7" d="M319.64,245.51c2.19,7.55,3.29,11.32,4.09,12.95,2.74,5.55,9.5,10.81,16.62,9.58.54-.09,6.85-1.29,9.81-6.94,3.43-6.55-.5-13.67-1.33-15.06-1.85-3.12-3.28-3.2-11.13-9.26-6.2-4.79-9.31-7.18-10.91-9.72-3.87-6.12-3.81-12.88-3.77-17.36.03-3.99.11-7.6,2.33-11.22,1.67-2.71,4.07-4.67,5.31-5.67,3.04-2.47,3.72-2.02,5.88-3.86.73-.62,6.3-5.49,5.65-11.19-.42-3.67-3.21-5.83-4.02-6.46-6.21-4.82-15.2-1.09-16.45-.57-7.43,3.09-11.06,9.48-12.01,11.22-.62,1.13-4.62,8.66-3.02,17.18,1.07,5.7,3.62,6.33,3.53,11.54,0,.36-.24,8.21-4.93,11.15-2.69,1.69-3.95-.06-8.42,1.39-1.36.44-6.05,1.97-8.77,6.61-.53.9-3.2,5.47-1.45,10.16,1.62,4.33,6.03,6.16,9.42,6.14,3.27-.01,5.87-1.74,6.74-2.32,3.13-2.07,2.92-3.72,5.53-4.98,2.54-1.23,5.87-1.18,8.09.41,1.82,1.3,2.32,3.21,3.2,6.26Z"/>
    <path class="cls-7" d="M171.27,369.4c3.18-9.8,9.17-15.66,12.93-19.25,2.66-2.55,8.69-8.19,18.11-11.5,6.27-2.2,7.41-1.04,23.85-3.16,10.72-1.38,16.17-2.12,20.69-4.31,3.37-1.64,11.03-5.35,15.23-13.79,5.43-10.92,1.28-22.13,0-25.58-2.45-6.6-6.13-10.53-13.51-18.39-4.77-5.09-10.37-10.96-19.25-15.81-8.01-4.37-8.78-2.5-15.23-6.03-16.98-9.29-22.06-27.93-22.42-29.32-1.54-5.98-3.7-14.39.86-22.7,4.9-8.93,14.15-11.5,15.23-11.78,6.68-1.74,12.12.05,18.97,2.3,4.83,1.59,8.32,2.73,11.78,6.04,1.27,1.21,6.64,6.49,6.9,14.66.21,6.63-3.06,11.46-4.02,12.84-4.85,6.95-10,5.78-12.36,11.3-2.31,5.39.3,11.9,2.87,15.52,3.52,4.94,8.12,6.06,15.52,9.2,0,0,12.55,5.33,22.99,12.63,13.77,9.64,20.42,22.62,23.57,28.75,3.42,6.67,7.5,14.64,8.33,26.17.95,13.14-2.9,23.1-4.31,26.43-4.25,10.01-10.18,15.69-18.39,23.57-2.6,2.49-13.24,12.49-30.75,21.84-9.16,4.89-17.85,9.54-30.46,12.07-11.87,2.38-27.91,5.6-38.8-3.76-6.78-5.83-8.81-14.18-9.48-16.93-2.38-9.76.08-17.68,1.15-20.98Z"/>
    <path class="cls-7" d="M212.92,277.97c4.02-2.49,2.73-7.1,6.51-9.2,2.74-1.52,5.96-.51,8.81.38,5.4,1.69,8.69,5.12,11.88,8.53,2.62,2.8,6,6.48,8.24,12.36,1.78,4.67,3.96,10.4,1.05,14.56-2.98,4.27-9.4,4.13-9.77,4.12-5.01-.18-5.8-3.3-11.78-4.89-1.39-.37-10.2-2.7-14.37,2.01-3.26,3.69-1.97,9.75-.57,12.93,1.72,3.91,4.69,5.96,5.75,6.62,5.46,3.42,11.48,2.15,14.94,1.42,2.36-.5,10.22-2.27,16-9.68,5.14-6.58,5.49-13.59,5.56-15.61.27-7.76-2.92-13.33-6.32-19.25-2.85-4.97-6.33-11.04-13.41-16-1.39-.97-16.62-11.35-28.16-5.36-1.28.66-6.26,3.25-6.99,8.24-.43,2.92.58,6.83,3.74,8.81,2.76,1.74,6.42,1.54,8.91,0Z"/>
    <path class="cls-7" d="M118.36,337.16c2.68-5.11,6.45-12.07,14.56-17.24,3.4-2.17,11.98-7.64,22.99-5.36.93.19,14.13,3.14,19.16,14.77,4.16,9.62.18,19.28-2.68,26.23-5.09,12.36-10.22,12.07-13.79,22.99-1.15,3.52-4.57,14.54.38,26.44.44,1.06,6.19,14.29,20.31,19.54,9.6,3.57,17.77,1.49,34.1-2.68,12.14-3.1,20.94-6.97,29.51-10.73,17.05-7.49,25.58-11.24,31.8-15.71,4.89-3.51,7.41-6,11.88-6.13,7.85-.24,15.96,6.96,18.78,14.94,5.11,14.48-8.2,28.81-9.96,30.65-9.41,9.84-21.37,11.85-35.25,14.18-14.26,2.39-25.15,1.56-37.55.53-11.94-.99-27.89-2.42-47.51-8.96-19.01-6.34-31.23-10.41-42.92-22.22-4.59-4.64-18.15-19.63-20.69-42.85-.73-6.67-1.47-22.45,6.9-38.38Z"/>
    <path class="cls-7" d="M70.71,467.67c-2.92-1.33-2.59-3-6.42-7.4-7.34-8.43-16.47-11.36-19.3-12.23-4.01-1.23-8.72-2.61-14.13-.95-2.12.65-6.23,1.91-7.91,5.76-1.65,3.78-.18,8.25,2.2,10.81,2.1,2.26,4.71,2.81,9.65,3.85,4.51.95,5.56.43,8.69,1.1,5.96,1.28,9.98,4.86,11.58,6.32,1.25,1.14,10.27,9.59,8.87,18.95-.24,1.6-1.35,4.5-3.59,10.32-1.8,4.68-2.37,5.57-2.42,7.58-.08,3.38,1.39,7.51,4.44,10.17,4.79,4.18,9.49,1.25,14.86,5.93,2.53,2.21,3.64,4.74,4.04,5.68,1.45,3.4,1.72,7.46-.87,16.58-3.81,13.42-7.48,15.46-6.64,22.44.21,1.74.91,7.55,5.2,9.93,4.56,2.53,10.63-.21,13.86-2.93,5.96-5.02,6.02-13.16,6.03-15.12.05-7.04-3.12-8.03-3.19-15.48-.03-3.3-.1-10.37,4.83-14.39,5.78-4.72,14.21-1.82,15.38-1.42,6.31,2.17,9.65,7.09,11.68,10.1,3.79,5.6,2.58,7.48,6.48,15.57,1.72,3.57,4.54,9.31,10.07,14.91,1.23,1.25,6.76,6.71,16.01,10.62,6.66,2.82,13,5.5,20.88,3.8,1.95-.42,10.98-2.38,15.81-10.92.76-1.35,5.32-9.75,1.44-18.01-3.61-7.69-11.96-9.78-16.22-10.85-1.61-.4-10.81-2.56-20.28,1.58-5.74,2.51-6.16,4.97-10.63,5.43-5.56.57-12.32-2.46-14.58-7.76-1.33-3.11-.64-5.94.75-11.35,2.05-7.96,4.48-10.12,6.75-16.54.57-1.6,3.04-8.91,2.55-18.14-.1-1.93-.74-11.64-7.01-22.14-2.88-4.83-7.32-12.27-16.69-16.93-1.99-.99-11.62-5.79-22.31-3.16-4.36,1.07-3.75,2.11-12.77,5.48-12.25,4.58-15.65,3.51-17.15,2.83Z"/>
    <path class="cls-7" d="M123.1,580.51c-1.49.14-3.49-.35-7.77-4.61-3.18-3.17-5.3-6.11-7.07-8.73-4.1-6.09-6.15-9.14-6.72-11.86-.27-1.29-1.66-7.97,2.4-13.25.78-1.02,3.43-4.46,7.67-4.67,3.37-.17,5.83,1.79,6.8,2.57,3.21,2.55,4.21,6,4.67,7.69,1.15,4.19.51,7.99-.15,11.92-.71,4.2-1.44,4.87-1.15,7.55.14,1.3.47,4.23,2.43,7.07,1.46,2.11,2.83,2.73,2.63,3.92-.22,1.29-2.12,2.27-3.75,2.42Z"/>
    <path class="cls-7" d="M42.42,128.04c3.15-.38,4.19-1.68,7.24-2.95,5.33-2.22,10.32-1.64,13.07-1.32,8.81,1.02,14.68,5.93,16.45,7.46,6.07,5.22,9.04,11.8,10.43,14.89,2.86,6.34,2.58,9.34,6.35,12.79.96.88,4.36,3.9,9.24,4.09,1.96.07,3.96-.32,7.54-2.01,6.37-3.01,10.96-6.96,13.95-9.89,3.42-3.36,7.52-7.37,10.85-13.99,2.02-4.01,4.81-9.56,4.63-17.01-.28-11.7-7.71-19.59-9.59-21.46-8.11-8.1-18.09-9.34-23.73-10.04-6.74-.84-17.24,1.88-37.97,7.36-5.14,1.36-15.9,4.27-27.14,10.92-3.22,1.9-8.81,5.48-10.58,11.69-.41,1.42-1.22,4.44.35,6.78,2.26,3.36,7.81,2.84,8.91,2.71Z"/>
    <path class="cls-7" d="M100.35,198.54c-.55-1.71-2.54-8.2,0-15.52,3.03-8.73,11.02-14.36,18.68-16.09,11.61-2.62,20.94,4.07,25.29,7.18,9.13,6.54,13.04,15.15,15.23,20.12,1.88,4.27,2.8,7.75,6.04,31.33,3.01,21.92,2.78,23.06,4.6,27.59,3.21,7.99,7.66,13.72,15.52,23.85,9.01,11.61,10.57,11.14,13.7,17.53,1.62,3.31,7.49,15.3,2.97,27.01-.88,2.27-2.97,7.7-8.33,10.03-.74.32-5.71,2.49-10.06,0-2.57-1.46-3.71-3.85-4.31-5.15-1.86-4.02-.47-6-1.29-10.3-.12-.64-1.68-8.17-7.62-11.54-4.1-2.33-8.42-1.63-13.22-.86-4.15.67-5.12,1.54-12.79,4.17-8.95,3.07-13.47,4.58-16.14,3.5-6.18-2.52-7.39-12.4-7.57-14.11-.97-9.3,3.81-13.09,6.9-22.88,4.52-14.33,1.97-30.58-3.74-41.66-2.11-4.09-7.32-12.68-14.94-21.27-3.85-4.34-7.09-7.29-8.91-12.93Z"/>
    <path class="cls-7" d="M83.27,162.05c-4.37.54-6.96,4.01-7.88,5.25-2.21,2.96-2.77,6-3,7.32-2.95,16.96-2.81,24.39-2.81,24.39.28,14.74.41,22.11,4.5,30.59,2.18,4.52,5.02,10.18,11.26,12.57,5.27,2.02,10.26.67,12.2,0,1.37-.47,8.01-2.75,10.51-9.01,2.89-7.23-1.77-14.74-3.57-17.64-2.58-4.17-6.71-8.19-8.7-10.13-3.48-3.39-4.17-3.41-5.18-5.25-2.48-4.53-1.69-10.56.38-14.82,2.2-4.56,4.52-4.36,5.44-8.46.15-.65,1.11-5.28-1.69-9.37-1.58-2.32-3.66-3.41-4.69-3.94-1.22-.63-3.68-1.89-6.76-1.5Z"/>
    <ellipse class="cls-7" cx="41.53" cy="217.5" rx="5.82" ry="6.16"/>
    <ellipse class="cls-7" cx="190.05" cy="247.97" rx="8.91" ry="10.06"/>
    <circle class="cls-7" cx="64.34" cy="140.13" r="9.02"/>
    <circle class="cls-7" cx="146.35" cy="541.07" r="4.02"/>
    <circle class="cls-7" cx="169.61" cy="517.06" r="3.98"/>
    <circle class="cls-7" cx="102.15" cy="360.4" r="5.44"/>
    <circle class="cls-7" cx="95.37" cy="561.31" r="3.39"/>
    <circle class="cls-7" cx="50.27" cy="349.03" r="4.37"/>
    <circle class="cls-7" cx="211.22" cy="284.77" r="4.89"/>
    <circle class="cls-7" cx="211.08" cy="293.37" r="2.54"/>
    <ellipse class="cls-7" cx="235.14" cy="289.56" rx="4.93" ry="6.66"/>
    <circle class="cls-7" cx="254.59" cy="211.05" r="3.88"/>
    <circle class="cls-7" cx="249.55" cy="222.68" r="2.02"/>
    <path class="cls-7" d="M309.08,491.89c.98-3.6.18-4.03,1.1-5.97,1.45-3.08,3.7-2.47,6.26-5.87.7-.93,3.24-4.3,2.25-7.92-.46-1.69-1.92-4.25-4.5-4.6-2.85-.39-5.37,2.15-5.97,4.4-.15.55-.11.82.1,3.23.33,3.9.49,5.86.39,6.36-.58,2.85-3.21,5.06-5.48,5.97-1.76.71-2.1.15-6.46.68-3.78.46-5.69.72-6.75,1.96-1.42,1.67-1.38,4.38-.49,6.26,1.59,3.37,5.83,3.9,7.53,4.11.82.1,6.11.76,9.33-2.64,1.49-1.57,2-3.45,2.68-5.97Z"/>
    <path class="cls-7" d="M68.58,77.7c-.13-.83-.36-2.25-1.19-3.86-.27-.53-1.78-3.44-4.77-4.92-4.87-2.4-10.48.55-11.62,1.16-3.97,2.09-3.19,3.77-7.85,6.85-1.88,1.25-5.68,3.69-10.73,3.67-1.88,0-5.54-.02-7.55-2.51-1.59-1.97-1.39-4.54-1.29-5.79.24-3.04,1.55-3.52,1.99-6.08.56-3.22-.69-7.24-3.68-9.74-.51-.43-4.95-4.04-9.44-2.12-3.62,1.55-4.43,5.48-4.47,5.69-.65,3.46,1.45,6.29,2.4,7.56,2.55,3.42,4.78,3.04,6.15,5.85,1.04,2.12.1,3.04,0,7.62-.08,3.7-.19,8.52,2.58,12.63.76,1.12,3.1,4.6,6.95,5.11,3.85.51,7.19-2.21,9.34-3.95,3.62-2.94,3.35-4.7,6.75-6.46.83-.43,3.33-1.69,6.56-1.54,2.85.13,3.24,1.22,7.35,2.03,2.76.54,4.56.9,6.66.19,3.61-1.21,5.15-4.54,5.36-5.02,1.1-2.47.75-4.75.5-6.37Z"/>
    <ellipse class="cls-7" cx="79.58" cy="72.38" rx="4.08" ry="3.96"/>
    <ellipse class="cls-7" cx="76.81" cy="82.11" rx="3.1" ry="3.01"/>
    <ellipse class="cls-7" cx="39.28" cy="64.66" rx="5.19" ry="5.03"/>
    <circle class="cls-7" cx="106.45" cy="262.98" r="13.79"/>
    <circle class="cls-7" cx="286.95" cy="508.13" r="5.44"/>
    <circle class="cls-7" cx="307.06" cy="352.7" r="5.11"/>
    <circle class="cls-7" cx="298.5" cy="478.78" r="4.37"/>
    <path class="cls-7" d="M58.75,533.49c-3.76,2.88-2.01,7.33-5.56,9.8-2.57,1.78-5.87,1.1-8.81.5-5.54-1.14-9.15-4.22-12.67-7.3-2.89-2.53-6.62-5.85-9.43-11.47-2.23-4.47-4.98-9.95-2.5-14.38,2.54-4.55,8.94-5.05,9.31-5.07,5.01-.32,6.11,2.71,12.21,3.68,1.42.23,10.42,1.67,14.1-3.44,2.88-3.99.99-9.9-.72-12.93-2.1-3.72-5.26-5.46-6.38-6.02-5.77-2.85-11.63-1-15.01.08-2.3.73-9.94,3.28-14.95,11.22-4.46,7.06-4.1,14.07-3.97,16.09.5,7.75,4.24,12.97,8.21,18.53,3.33,4.66,7.4,10.35,14.94,14.58,1.48.83,17.67,9.64,28.56,2.53,1.2-.79,5.91-3.86,6.14-8.9.13-2.95-1.26-6.74-4.6-8.4-2.92-1.45-6.55-.89-8.86.89Z"/>
    <circle class="cls-7" cx="28.79" cy="513.82" r="4.89"/>
    <circle class="cls-7" cx="29.46" cy="523.05" r="2.54"/>
    <circle class="cls-7" cx="48.48" cy="524.99" r="6.73"/>
    <path class="cls-4" d="M61.75,221.52c-.07-.13-1.46-2.82-2.24-5.18-1.58-4.75-1.07-9.22-.65-12.38,1.38-10.42,2.45-11.67,3.42-19,1.3-9.88.5-16.26,0-19.23-.56-3.42-1.06-6.29-2.89-9.66-1.54-2.83-4.61-8.47-10.82-9.8-6.48-1.4-11.78,2.89-12.86,3.8-5.12,4.38-5.79,10.54-6.11,13.5-.77,7.18,1.83,12.77,3.47,16.26.84,1.8,2.78,4.61,6.64,10.23,5.07,7.37,7.6,11.05,9.75,13.47,1.96,2.21,3.42,3.58,4.81,6.35.83,1.65,2.26,4.58,1.98,8.4-.13,1.73-.38,5.19-2.81,7.01-1.14.85-1.99.77-7.53,1.24-4.09.35-6.13.52-6.73.71-3.46,1.11-7.05,4.34-8.18,8.68-1.43,5.49,1.79,10.03,3.42,12.33.91,1.28,4.1,5.79,9.51,7.16,3.17.81,4.6-.1,7.36,1.37.92.49,2.48,1.51,4.92,5.14,3.36,5,2.8,6.65,5.18,10.45,1.26,2.02,4.31,6.9,9.92,8.48.75.21,7.06,1.89,11.2-1.84,2.56-2.31,2.97-5.5,3.33-8.68.25-2.18.62-7.75-2.6-15.83-2.2-5.51-4.87-9.17-10-16.2-2.7-3.7-5.28-7.48-7.99-11.18-.65-.89-2.05-2.8-3.49-5.57Z"/>
    <path class="cls-4" d="M124.2,432.76c-.48-.54-6.81-7.76-11.48-16.34-6.15-11.33-4.76-16.49-9.83-32.54-4.92-15.55-7.37-23.32-13.35-27.73-11.75-8.66-31.42-5.11-43.89,4.3-2.24,1.69-16.12,12.16-16.26,29.38-.15,18.95,16.47,30.4,18.37,31.66,5.05,3.36,16.91,5.55,40.43,9.79,14.27,2.57,15.85,2.52,21.53,4.28,12.77,3.96,21.79,9.51,28.55,13.74,6.24,3.9,14.53,9.15,23.45,18.14,8.17,8.23,13.05,15.75,17.89,23.32,10.87,16.96,9.91,21.22,18.68,30.71,5.96,6.45,11.63,12.59,20.94,14.08,14.77,2.35,26.25-9,27.34-10.11,2.1-2.14,7.12-7.39,8.62-15.54,2.65-14.36-7.75-26.25-13.06-32.31-9.99-11.41-21.77-15.82-26.48-17.52-8.05-2.9-15.24-3.69-20.08-4.22-9.79-1.07-10.8.2-21.7-.66-8.66-.68-15.55-1.23-24.1-4.5-10.21-3.91-16.87-9.43-19.08-11.36-2.9-2.53-4.89-4.77-6.5-6.59Z"/>
    <path class="cls-4" d="M81.18,335.79c-3.52,1.22-3.43,2.12-5.55,2.46-3.36.54-4.13-1.66-8.38-1.86-1.17-.05-5.38-.25-7.81,2.61-1.13,1.34-2.42,3.98-1.26,6.31,1.29,2.57,4.81,3.22,7,2.45.54-.19.74-.38,2.61-1.9,3.04-2.47,4.56-3.71,5.03-3.91,2.68-1.13,5.98-.2,8.02,1.16,1.58,1.06,1.31,1.65,4.21,4.95,2.51,2.86,3.8,4.3,5.42,4.47,2.18.23,4.39-1.33,5.45-3.13,1.89-3.22-.07-7.01-.86-8.54-.38-.74-2.82-5.48-7.44-6.21-2.14-.34-3.98.3-6.44,1.15Z"/>
    <path class="cls-4" d="M254.83,247.88c3.69-.65,6.04-2.81,7.24-3.91,1.01-.93,3.61-3.32,4.6-7.14,1-3.87-.67-5.24,0-8.41.72-3.38,3.35-5.29,8.22-8.71,7.35-5.16,10.07-4.69,16.92-9.78,3.63-2.7,5.45-4.05,6.95-6.46,4.87-7.82,1.51-17.49.68-19.86-.82-2.35-4.01-11.1-13.4-15.85-7.64-3.86-14.87-2.79-17.51-2.25-6.78,1.4-11,5.02-13.7,7.34-3.35,2.88-6.78,5.83-7.83,10.86-.81,3.9.22,7.17.59,8.32.59,1.81,1.76,5.4,4.99,7.53,3.19,2.1,5.1.63,7.53,2.84,1.92,1.74,2.81,4.55,2.54,6.95-.41,3.79-3.63,6.06-6.26,7.92-4.77,3.37-6.63,2.3-12.42,5.67-3.86,2.25-6.99,4.07-8.02,7.63-1.2,4.12,1.15,8.01,1.86,9.2,2.3,3.82,5.75,5.41,7.83,6.36,2.25,1.03,5.32,2.44,9.2,1.76Z"/>
    <path class="cls-4" d="M190.72,527.59c.06-.66.16-1.79-.14-3.18-.1-.46-.66-2.97-2.6-4.67-3.16-2.76-7.91-1.54-8.88-1.29-3.36.86-3.11,2.29-7.17,3.78-1.64.6-4.94,1.76-8.7.8-1.4-.36-4.12-1.06-5.14-3.34-.81-1.81-.16-3.75.15-4.68.76-2.29,1.83-2.41,2.65-4.29,1.04-2.37.88-5.68-.86-8.16-.3-.43-2.91-4.03-6.62-3.4-3,.51-4.36,3.38-4.43,3.53-1.16,2.53-.13,5.1.33,6.25,1.24,3.1,2.97,3.23,3.45,5.64.36,1.82-.51,2.36-1.47,5.85-.78,2.82-1.78,6.5-.51,10.18.35,1,1.42,4.11,4.19,5.23,2.77,1.11,5.78-.35,7.72-1.28,3.27-1.58,3.4-2.98,6.28-3.69.7-.17,2.81-.67,5.18.04,2.1.63,2.18,1.54,5.09,2.93,1.95.93,3.22,1.54,4.92,1.4,2.92-.25,4.72-2.52,4.96-2.84,1.3-1.69,1.47-3.51,1.6-4.79Z"/>
    <path class="cls-4" d="M358.21,510.14c-1.01-4.62-2.64-7.87-3.73-10-3.66-7.17-8.26-11.74-9.9-13.3-5.56-5.26-7.05-4.14-10.38-8.44-1.49-1.93-5.15-6.82-4.85-13.68.26-5.94,3.34-9.97,4.29-11.18.91-1.15,4.56-5.79,10.61-7.02,4.65-.94,6.27,1.04,11.27.82,5.05-.22,8.61-2.45,13.18-5.39,5.15-3.31,14.72-9.47,19.7-22.07,1.28-3.24,4.2-11.82,2.33-22.53-.75-4.32-2.76-15.84-12.44-22.4-5.55-3.76-10.98-4.09-12.05-4.14-2.87-.13-9.06-.42-13.41,4.07-4.72,4.87-3.82,11.8-3.71,12.51.82,5.6,4.23,5.81,5.26,11.26,1.09,5.76-1.52,11.88-5.45,15.67-1.43,1.38-5.66,5.46-10.55,4.59-6.77-1.21-9.31-10.96-9.74-12.77-1.72-7.3.8-13.43,3.67-20.41,1.44-3.51,4.35-10.41,10.71-17.27,6.35-6.86,9.25-6.23,12.48-11.83,1.29-2.23,5.06-9.67,2.37-17.49-3.82-11.14-17.5-13.61-20.13-14.09-3.77-.68-12.66-2.29-17.98,3.17-3.46,3.55-4.73,9.4-4.02,13.97.59,3.83,2.27,4.78,1.87,8.04-.42,3.5-2.87,6.76-5.79,8.54-4.86,2.96-7.91-.09-12.56,2.77-3.04,1.87-5.47,5.47-5.66,9.43-.29,6.05,4.77,9.99,5.58,10.62,3.63,2.82,5.49,1.45,10.03,3.7,7.83,3.88,10.91,12.25,11.53,13.94,2.46,6.7,1.54,12.46,1.09,15.07-1.59,9.14-6.78,14.95-8.8,17.14-1.07,1.16-9.63,10.23-23.06,12.05-7.52,1.02-8.82-1.28-16.47.54-4.64,1.1-10.97,2.61-14.75,8.42-4.42,6.8-2.11,14.52-1.77,15.56.24.74,3.24,9.71,11.5,12.12,6.31,1.85,11.98-1.21,16.96-3.9,5.78-3.12,5.84-5,15.25-11.41,8.03-5.48,10.33-5.71,11.97-5.59,6.9.49,10.99,7.81,11.25,8.29,2.43,4.5,1.99,8.84,1.82,10.13-.26,1.89-1.14,5.79-7.99,13-8.22,8.63-11.32,7.62-16.02,14.17-2.04,2.85-5.96,8.33-5.09,14.98.72,5.49,4.33,8.93,8.69,13.09,4.39,4.19,10.83,10.33,21.24,11.68,2.9.38,11.99,1.56,20.62-4.32,7.07-4.82,10.98-12.44,11.81-19.32.56-4.64-.31-8.74-.76-10.79Z"/>
    <path class="cls-4" d="M319.97,237.08c2.19,7.55,3.29,11.32,4.09,12.95,2.74,5.55,9.5,10.81,16.62,9.58.54-.09,6.85-1.29,9.81-6.94,3.43-6.55-.5-13.67-1.33-15.06-1.85-3.12-3.28-3.2-11.13-9.26-6.2-4.79-9.31-7.18-10.91-9.72-3.87-6.12-3.81-12.88-3.77-17.36.03-3.99.11-7.6,2.33-11.22,1.67-2.71,4.07-4.67,5.31-5.67,3.04-2.47,3.72-2.02,5.88-3.86.73-.62,6.3-5.49,5.65-11.19-.42-3.67-3.21-5.83-4.02-6.46-6.21-4.82-15.2-1.09-16.45-.57-7.43,3.09-11.06,9.48-12.01,11.22-.62,1.13-4.62,8.66-3.02,17.18,1.07,5.7,3.62,6.33,3.53,11.54,0,.36-.24,8.21-4.93,11.15-2.69,1.69-3.95-.06-8.42,1.39-1.36.44-6.05,1.97-8.77,6.61-.53.9-3.2,5.47-1.45,10.16,1.62,4.33,6.03,6.16,9.42,6.14,3.27-.01,5.87-1.74,6.74-2.32,3.13-2.07,2.92-3.72,5.53-4.98,2.54-1.23,5.87-1.18,8.09.41,1.82,1.3,2.32,3.21,3.2,6.26Z"/>
    <path class="cls-4" d="M171.09,363.13c3.18-9.8,9.17-15.66,12.93-19.25,2.66-2.55,8.69-8.19,18.11-11.5,6.27-2.2,7.41-1.04,23.85-3.16,10.72-1.38,16.17-2.12,20.69-4.31,3.37-1.64,11.03-5.35,15.23-13.79,5.43-10.92,1.28-22.13,0-25.58-2.45-6.6-6.13-10.53-13.51-18.39-4.77-5.09-10.37-10.96-19.25-15.81-8.01-4.37-8.78-2.5-15.23-6.03-16.98-9.29-22.06-27.93-22.42-29.32-1.54-5.98-3.7-14.39.86-22.7,4.9-8.93,14.15-11.5,15.23-11.78,6.68-1.74,12.12.05,18.97,2.3,4.83,1.59,8.32,2.73,11.78,6.04,1.27,1.21,6.64,6.49,6.9,14.66.21,6.63-3.06,11.46-4.02,12.84-4.85,6.95-10,5.78-12.36,11.3-2.31,5.39.3,11.9,2.87,15.52,3.52,4.94,8.12,6.06,15.52,9.2,0,0,12.55,5.33,22.99,12.63,13.77,9.64,20.42,22.62,23.57,28.75,3.42,6.67,7.5,14.64,8.33,26.17.95,13.14-2.9,23.1-4.31,26.43-4.25,10.01-10.18,15.69-18.39,23.57-2.6,2.49-13.24,12.49-30.75,21.84-9.16,4.89-17.85,9.54-30.46,12.07-11.87,2.38-27.91,5.6-38.8-3.76-6.78-5.83-8.81-14.18-9.48-16.93-2.38-9.76.08-17.68,1.15-20.98Z"/>
    <path class="cls-4" d="M212.47,273.46c4.02-2.49,2.73-7.1,6.51-9.2,2.74-1.52,5.96-.51,8.81.38,5.4,1.69,8.69,5.12,11.88,8.53,2.62,2.8,6,6.48,8.24,12.36,1.78,4.67,3.96,10.4,1.05,14.56-2.98,4.27-9.4,4.13-9.77,4.12-5.01-.18-5.8-3.3-11.78-4.89-1.39-.37-10.2-2.7-14.37,2.01-3.26,3.69-1.97,9.75-.57,12.93,1.72,3.91,4.69,5.96,5.75,6.62,5.46,3.42,11.48,2.15,14.94,1.42,2.36-.5,10.22-2.27,16-9.68,5.14-6.58,5.49-13.59,5.56-15.61.27-7.76-2.92-13.33-6.32-19.25-2.85-4.97-6.33-11.04-13.41-16-1.39-.97-16.62-11.35-28.16-5.36-1.28.66-6.26,3.25-6.99,8.24-.43,2.92.58,6.83,3.74,8.81,2.76,1.74,6.42,1.54,8.91,0Z"/>
    <path class="cls-4" d="M118.69,328.74c2.68-5.11,6.45-12.07,14.56-17.24,3.4-2.17,11.98-7.64,22.99-5.36.93.19,14.13,3.14,19.16,14.77,4.16,9.62.18,19.28-2.68,26.23-5.09,12.36-10.22,12.07-13.79,22.99-1.15,3.52-4.57,14.54.38,26.44.44,1.06,6.19,14.29,20.31,19.54,9.6,3.57,17.77,1.49,34.1-2.68,12.14-3.1,20.94-6.97,29.51-10.73,17.05-7.49,25.58-11.24,31.8-15.71,4.89-3.51,7.41-6,11.88-6.13,7.85-.24,15.96,6.96,18.78,14.94,5.11,14.48-8.2,28.81-9.96,30.65-9.41,9.84-21.37,11.85-35.25,14.18-14.26,2.39-25.15,1.56-37.55.53-11.94-.99-27.89-2.42-47.51-8.96-19.01-6.34-31.23-10.41-42.92-22.22-4.59-4.64-18.15-19.63-20.69-42.85-.73-6.67-1.47-22.45,6.9-38.38Z"/>
    <path class="cls-4" d="M71.04,460.74c-2.92-1.33-2.59-3-6.42-7.4-7.34-8.43-16.47-11.36-19.3-12.23-4.01-1.23-8.72-2.61-14.13-.95-2.12.65-6.23,1.91-7.91,5.76-1.65,3.78-.18,8.25,2.2,10.81,2.1,2.26,4.71,2.81,9.65,3.85,4.51.95,5.56.43,8.69,1.1,5.96,1.28,9.98,4.86,11.58,6.32,1.25,1.14,10.27,9.59,8.87,18.95-.24,1.6-1.35,4.5-3.59,10.32-1.8,4.68-2.37,5.57-2.42,7.58-.08,3.38,1.39,7.51,4.44,10.17,4.79,4.18,9.49,1.25,14.86,5.93,2.53,2.21,3.64,4.74,4.04,5.68,1.45,3.4,1.72,7.46-.87,16.58-3.81,13.42-7.48,15.46-6.64,22.44.21,1.74.91,7.55,5.2,9.93,4.56,2.53,10.63-.21,13.86-2.93,5.96-5.02,6.02-13.16,6.03-15.12.05-7.04-3.12-8.03-3.19-15.48-.03-3.3-.1-10.37,4.83-14.39,5.78-4.72,14.21-1.82,15.38-1.42,6.31,2.17,9.65,7.09,11.68,10.1,3.79,5.6,2.58,7.48,6.48,15.57,1.72,3.57,4.54,9.31,10.07,14.91,1.23,1.25,6.76,6.71,16.01,10.62,6.66,2.82,13,5.5,20.88,3.8,1.95-.42,10.98-2.38,15.81-10.92.76-1.35,5.32-9.75,1.44-18.01-3.61-7.69-11.96-9.78-16.22-10.85-1.61-.4-10.81-2.56-20.28,1.58-5.74,2.51-6.16,4.97-10.63,5.43-5.56.57-12.32-2.46-14.58-7.76-1.33-3.11-.64-5.94.75-11.35,2.05-7.96,4.48-10.12,6.75-16.54.57-1.6,3.04-8.91,2.55-18.14-.1-1.93-.74-11.64-7.01-22.14-2.88-4.83-7.32-12.27-16.69-16.93-1.99-.99-11.62-5.79-22.31-3.16-4.36,1.07-3.75,2.11-12.77,5.48-12.25,4.58-15.65,3.51-17.15,2.83Z"/>
    <path class="cls-4" d="M123.55,576.26c-1.49.14-3.49-.35-7.77-4.61-3.18-3.17-5.3-6.11-7.07-8.73-4.1-6.09-6.15-9.14-6.72-11.86-.27-1.29-1.66-7.97,2.4-13.25.78-1.02,3.43-4.46,7.67-4.67,3.37-.17,5.83,1.79,6.8,2.57,3.21,2.55,4.21,6,4.67,7.69,1.15,4.19.51,7.99-.15,11.92-.71,4.2-1.44,4.87-1.15,7.55.14,1.3.47,4.23,2.43,7.07,1.46,2.11,2.83,2.73,2.63,3.92-.22,1.29-2.12,2.27-3.75,2.42Z"/>
    <path class="cls-7" d="M356.02,301.31c.2-2.52-.69-4.06-1.58-6.66-1.45-4.24-1.86-8.31-1.83-10.62.02-1.75.37-9.05,6.25-14.13,4.96-4.28,10.76-4.32,12.32-4.27,7.47.2,12.12,4.92,13.17,6.04.92.98,4.22,4.73,4.95,10.61.64,5.14-1.04,9.05-2.1,11.44-2.01,4.52-4.75,7.18-9.24,11.44-3.91,3.72-6.45,6.14-10.61,8.42-1.68.92-8.69,4.61-18.58,4.86-7.49.19-13.04-1.69-16.91-3.04-1.52-.53-7.84-2.8-14.95-7.93-3.51-2.53-8.52-6.22-12.73-12.72-2.11-3.25-4.17-6.54-4.1-11.1.03-1.6.1-6.35,3.63-8.95,3-2.2,6.67-1.51,8.33-1.19,4.43.84,8.13,3.84,9.98,7.41.83,1.61,1.14,3.54,1.74,7.41.86,5.5.28,6.13.92,8.97,1.51,6.74,6.49,10.79,6.96,11.16,1.45,1.14,5.81,4.6,11.9,4.02,1.06-.1,6.49-.73,9.97-5.22.64-.82,2.25-2.96,2.49-5.97Z"/>
    <path class="cls-4" d="M42.75,122.95c3.15-.38,4.19-1.68,7.24-2.95,5.33-2.22,10.32-1.64,13.07-1.32,8.81,1.02,14.68,5.93,16.45,7.46,6.07,5.22,9.04,11.8,10.43,14.89,2.86,6.34,2.58,9.34,6.35,12.79.96.88,4.36,3.9,9.24,4.09,1.96.07,3.96-.32,7.54-2.01,6.37-3.01,10.96-6.96,13.95-9.89,3.42-3.36,7.52-7.37,10.85-13.99,2.02-4.01,4.81-9.56,4.63-17.01-.28-11.7-7.71-19.59-9.59-21.46-8.11-8.1-18.09-9.34-23.73-10.04-6.74-.84-17.24,1.88-37.97,7.36-5.14,1.36-15.9,4.27-27.14,10.92-3.22,1.9-8.81,5.48-10.58,11.69-.41,1.42-1.22,4.44.35,6.78,2.26,3.36,7.81,2.84,8.91,2.71Z"/>
    <path class="cls-4" d="M100.68,190.12c-.55-1.71-2.54-8.2,0-15.52,3.03-8.73,11.02-14.36,18.68-16.09,11.61-2.62,20.94,4.07,25.29,7.18,9.13,6.54,13.04,15.15,15.23,20.12,1.88,4.27,2.8,7.75,6.04,31.33,3.01,21.92,2.78,23.06,4.6,27.59,3.21,7.99,7.66,13.72,15.52,23.85,9.01,11.61,10.57,11.14,13.7,17.53,1.62,3.31,7.49,15.3,2.97,27.01-.88,2.27-2.97,7.7-8.33,10.03-.74.32-5.71,2.49-10.06,0-2.57-1.46-3.71-3.85-4.31-5.15-1.86-4.02-.47-6-1.29-10.3-.12-.64-1.68-8.17-7.62-11.54-4.1-2.33-8.42-1.63-13.22-.86-4.15.67-5.12,1.54-12.79,4.17-8.95,3.07-13.47,4.58-16.14,3.5-6.18-2.52-7.39-12.4-7.57-14.11-.97-9.3,3.81-13.09,6.9-22.88,4.52-14.33,1.97-30.58-3.74-41.66-2.11-4.09-7.32-12.68-14.94-21.27-3.85-4.34-7.09-7.29-8.91-12.93Z"/>
    <path class="cls-4" d="M83.6,153.63c-4.37.54-6.96,4.01-7.88,5.25-2.21,2.96-2.77,6-3,7.32-2.95,16.96-2.81,24.39-2.81,24.39.28,14.74.41,22.11,4.5,30.59,2.18,4.52,5.02,10.18,11.26,12.57,5.27,2.02,10.26.67,12.2,0,1.37-.47,8.01-2.75,10.51-9.01,2.89-7.23-1.77-14.74-3.57-17.64-2.58-4.17-6.71-8.19-8.7-10.13-3.48-3.39-4.17-3.41-5.18-5.25-2.48-4.53-1.69-10.56.38-14.82,2.2-4.56,4.52-4.36,5.44-8.46.15-.65,1.11-5.28-1.69-9.37-1.58-2.32-3.66-3.41-4.69-3.94-1.22-.63-3.68-1.89-6.76-1.5Z"/>
    <ellipse class="cls-4" cx="41.53" cy="214.26" rx="5.82" ry="6.16"/>
    <ellipse class="cls-4" cx="190.05" cy="244.88" rx="8.91" ry="10.06"/>
    <circle class="cls-4" cx="64.75" cy="136.41" r="9.02"/>
    <circle class="cls-4" cx="145.67" cy="539.22" r="4.02"/>
    <circle class="cls-4" cx="169.56" cy="513.82" r="3.98"/>
    <circle class="cls-4" cx="102.15" cy="357.98" r="5.44"/>
    <circle class="cls-4" cx="50.27" cy="347.91" r="4.37"/>
    <circle class="cls-4" cx="210.75" cy="282.37" r="4.89"/>
    <circle class="cls-4" cx="211.08" cy="292.1" r="2.54"/>
    <ellipse class="cls-4" cx="235.51" cy="287.98" rx="4.93" ry="6.66"/>
    <circle class="cls-4" cx="254.92" cy="208.41" r="3.88"/>
    <circle class="cls-4" cx="249.88" cy="214.26" r="2.02"/>
    <path class="cls-4" d="M307.45,489.36c.98-3.6.18-4.03,1.1-5.97,1.45-3.08,3.7-2.47,6.26-5.87.7-.93,3.24-4.3,2.25-7.92-.46-1.69-1.92-4.25-4.5-4.6-2.85-.39-5.37,2.15-5.97,4.4-.15.55-.11.82.1,3.23.33,3.9.49,5.86.39,6.36-.58,2.85-3.21,5.06-5.48,5.97-1.76.71-2.1.15-6.46.68-3.78.46-5.69.72-6.75,1.96-1.42,1.67-1.38,4.38-.49,6.26,1.59,3.37,5.83,3.9,7.53,4.11.82.1,6.11.76,9.33-2.64,1.49-1.57,2-3.45,2.68-5.97Z"/>
    <path class="cls-4" d="M70.35,71.63c-.13-.83-.36-2.25-1.19-3.86-.27-.53-1.78-3.44-4.77-4.92-4.87-2.4-10.48.55-11.62,1.16-3.97,2.09-3.19,3.77-7.85,6.85-1.88,1.25-5.68,3.69-10.73,3.67-1.88,0-5.54-.02-7.55-2.51-1.59-1.97-1.39-4.54-1.29-5.79.24-3.04,1.55-3.52,1.99-6.08.56-3.22-.69-7.24-3.68-9.74-.51-.43-4.95-4.04-9.44-2.12-3.62,1.55-4.43,5.48-4.47,5.69-.65,3.46,1.45,6.29,2.4,7.56,2.55,3.42,4.78,3.04,6.15,5.85,1.04,2.12.1,3.04,0,7.62-.08,3.7-.19,8.52,2.58,12.63.76,1.12,3.1,4.6,6.95,5.11,3.85.51,7.19-2.21,9.34-3.95,3.62-2.94,3.35-4.7,6.75-6.46.83-.43,3.33-1.69,6.56-1.54,2.85.13,3.24,1.22,7.35,2.03,2.76.54,4.56.9,6.66.19,3.61-1.21,5.15-4.54,5.36-5.02,1.1-2.47.75-4.75.5-6.37Z"/>
    <ellipse class="cls-4" cx="79.91" cy="70.27" rx="4.08" ry="3.96"/>
    <ellipse class="cls-4" cx="76.81" cy="80.34" rx="3.1" ry="3.01"/>
    <ellipse class="cls-4" cx="39.28" cy="61.27" rx="5.19" ry="5.03"/>
    <circle class="cls-4" cx="106.78" cy="254.56" r="13.79"/>
    <circle class="cls-4" cx="287.28" cy="505.14" r="5.44"/>
    <circle class="cls-4" cx="306.84" cy="350.43" r="5.11"/>
    <circle class="cls-4" cx="297.92" cy="475.94" r="4.37"/>
    <path class="cls-4" d="M57.02,527.96c-3.76,2.88-2.01,7.33-5.56,9.8-2.57,1.78-5.87,1.1-8.81.5-5.54-1.14-9.15-4.22-12.67-7.3-2.89-2.53-6.62-5.85-9.43-11.47-2.23-4.47-4.98-9.95-2.5-14.38,2.54-4.55,8.94-5.05,9.31-5.07,5.01-.32,6.11,2.71,12.21,3.68,1.42.23,10.42,1.67,14.1-3.44,2.88-3.99.99-9.9-.72-12.93-2.1-3.72-5.26-5.46-6.38-6.02-5.77-2.85-11.63-1-15.01.08-2.3.73-9.94,3.28-14.95,11.22-4.46,7.06-4.1,14.07-3.97,16.09.5,7.75,4.24,12.97,8.21,18.53,3.33,4.66,7.4,10.35,14.94,14.58,1.48.83,17.67,9.64,28.56,2.53,1.2-.79,5.91-3.86,6.14-8.9.13-2.95-1.26-6.74-4.6-8.4-2.92-1.45-6.55-.89-8.86.89Z"/>
    <circle class="cls-4" cx="29.12" cy="511.78" r="4.89"/>
    <circle class="cls-4" cx="29.46" cy="521.5" r="2.54"/>
    <circle class="cls-4" cx="48.81" cy="521.5" r="6.73"/>
    <path class="cls-7" d="M308.84,262.85c.76-2.79.14-3.13.85-4.63,1.13-2.39,2.87-1.92,4.86-4.56.55-.72,2.52-3.34,1.75-6.15-.36-1.31-1.49-3.3-3.49-3.57-2.21-.3-4.17,1.67-4.63,3.42-.11.43-.08.64.08,2.51.26,3.03.38,4.55.3,4.94-.45,2.21-2.49,3.92-4.25,4.63-1.37.55-1.63.12-5.01.53-2.94.36-4.42.56-5.24,1.52-1.1,1.29-1.07,3.4-.38,4.86,1.24,2.62,4.52,3.03,5.85,3.19.64.08,4.75.59,7.24-2.05,1.15-1.22,1.55-2.68,2.08-4.63Z"/>
    <circle class="cls-7" cx="291.66" cy="275.45" r="4.22"/>
    <circle class="cls-7" cx="300.62" cy="252.67" r="3.39"/>
    <path class="cls-4" d="M307.57,260.88c.76-2.79.14-3.13.85-4.63,1.13-2.39,2.87-1.92,4.86-4.56.55-.72,2.52-3.34,1.75-6.15-.36-1.31-1.49-3.3-3.49-3.57-2.21-.3-4.17,1.67-4.63,3.42-.11.43-.08.64.08,2.51.26,3.03.38,4.55.3,4.94-.45,2.21-2.49,3.92-4.25,4.63-1.37.55-1.63.12-5.01.53-2.94.36-4.42.56-5.24,1.52-1.1,1.29-1.07,3.4-.38,4.86,1.24,2.62,4.52,3.03,5.85,3.19.64.08,4.75.59,7.24-2.05,1.15-1.22,1.55-2.68,2.08-4.63Z"/>
    <circle class="cls-4" cx="291.91" cy="273.13" r="4.22"/>
    <circle class="cls-4" cx="300.17" cy="250.46" r="3.39"/>
    <path class="cls-4" d="M356.02,305.17c.2-2.52-.69-4.06-1.58-6.66-1.45-4.24-1.86-8.31-1.83-10.62.02-1.75.37-9.05,6.25-14.13,4.96-4.28,10.76-4.32,12.32-4.27,7.47.2,12.12,4.92,13.17,6.04.92.98,4.22,4.73,4.95,10.61.64,5.14-1.04,9.05-2.1,11.44-2.01,4.52-4.75,7.18-9.24,11.44-3.91,3.72-6.45,6.14-10.61,8.42-1.68.92-8.69,4.61-18.58,4.86-7.49.19-13.04-1.69-16.91-3.04-1.52-.53-7.84-2.8-14.95-7.93-3.51-2.53-8.52-6.22-12.73-12.72-2.11-3.25-4.17-6.54-4.1-11.1.03-1.6.1-6.35,3.63-8.95,3-2.2,6.67-1.51,8.33-1.19,4.43.84,8.13,3.84,9.98,7.41.83,1.61,1.14,3.54,1.74,7.41.86,5.5.28,6.13.92,8.97,1.51,6.74,6.49,10.79,6.96,11.16,1.45,1.14,5.81,4.6,11.9,4.02,1.06-.1,6.49-.73,9.97-5.22.64-.82,2.25-2.96,2.49-5.97Z"/>
  </g>
  <circle class="cls-7" cx="341.57" cy="300.69" r="6.27"/>
  <circle class="cls-4" cx="341.57" cy="297.73" r="6.27"/>
  <g>
    <text class="cls-2" transform="translate(344.76 218.4)"><tspan class="cls-6" x="0" y="0">P</tspan><tspan class="cls-5" x="87.72" y="0">O</tspan><tspan x="178.97" y="0">R</tspan><tspan class="cls-1" x="0" y="138">F</tspan><tspan x="84.18" y="138">O</tspan><tspan class="cls-8" x="0" y="276">L</tspan><tspan class="cls-9" x="67.46" y="276">I</tspan><tspan x="115.74" y="276">O</tspan></text>
    <text class="cls-3" transform="translate(356.76 218.4)"><tspan class="cls-6" x="0" y="0">P</tspan><tspan class="cls-5" x="87.72" y="0">O</tspan><tspan x="178.97" y="0">R</tspan><tspan class="cls-1" x="0" y="138">F</tspan><tspan x="84.18" y="138">O</tspan><tspan class="cls-8" x="0" y="276">L</tspan><tspan class="cls-9" x="67.46" y="276">I</tspan><tspan x="115.74" y="276">O</tspan></text>
  </g>
</svg>